<?xml version="1.0" encoding="UTF-8"?>
<svg xmlns="http://www.w3.org/2000/svg" width="510" height="80" viewBox="0 0 510 80" shape-rendering="crispEdges">
  <title>fuji-precision-logo</title>
  <path d="M0 0H510V80H0Z" fill="#FFFFFF" fill-opacity="0"/>
  <path d="M5 10 H6 V11 H10 V12 H11 V55 H10 V56 H8 V57 H5 Z M5 61 H31 V57 H27 V56 H25 V55 H24 V36 H25 V37 H36 V38 H37 V40 H38 V43 H42 V25 H38 V28 H37 V30 H35 V31 H24 V11 H34 V12 H38 V13 H39 V15 H40 V18 H41 V20 H42 V21 H43 V20 H46 V15 H45 V6 H49 V10 H50 V11 H54 V12 H55 V13 H56 V46 H57 V50 H58 V52 H59 V54 H60 V55 H61 V56 H62 V57 H63 V58 H64 V59 H65 V60 H68 V61 H70 V62 H77 V63 H79 V62 H85 V61 H87 V60 H89 V59 H91 V58 H92 V57 H93 V56 H94 V55 H95 V54 H96 V52 H97 V50 H98 V47 H99 V42 H100 V15 H101 V12 H103 V11 H106 V10 H107 V6 H110 V7 H109 V10 H111 V11 H115 V12 H116 V14 H117 V52 H116 V62 H115 V65 H114 V67 H113 V68 H111 V69 H110 V70 H108 V72 H109 V74 H5 Z M68 14 H69 V12 H70 V11 H74 V10 H75 V6 H85 V10 H87 V11 H91 V12 H93 V14 H94 V44 H93 V47 H92 V49 H91 V51 H90 V52 H89 V53 H88 V54 H86 V55 H76 V54 H74 V53 H73 V52 H72 V51 H71 V49 H70 V45 H69 V40 H68 Z M114 73 H116 V72 H117 V71 H119 V70 H120 V69 H121 V68 H122 V67 H123 V66 H124 V65 H125 V63 H126 V61 H127 V59 H128 V55 H129 V13 H130 V11 H134 V10 H136 V6 H139 V10 H141 V11 H145 V12 H146 V55 H145 V56 H143 V57 H140 V58 H139 V61 H166 V57 H162 V56 H160 V55 H159 V12 H160 V11 H164 V10 H166 V6 H189 V10 H190 V11 H194 V12 H195 V55 H194 V56 H192 V57 H188 V61 H215 V57 H210 V56 H208 V54 H207 V39 H210 V40 H218 V39 H222 V38 H224 V37 H226 V36 H227 V35 H228 V34 H229 V33 H230 V31 H231 V30 H232 V27 H233 V18 H232 V15 H231 V13 H230 V12 H229 V11 H228 V10 H227 V9 H225 V8 H223 V7 H220 V6 H347 V7 H345 V9 H344 V15 H345 V16 H346 V17 H347 V18 H353 V17 H355 V15 H356 V13 H357 V11 H356 V8 H355 V7 H354 V6 H402 V7 H401 V8 H400 V9 H399 V15 H400 V16 H401 V17 H402 V18 H409 V17 H410 V16 H411 V14 H412 V10 H411 V8 H410 V7 H409 V6 H505 V57 H502 V56 H501 V31 H500 V28 H499 V27 H498 V26 H497 V25 H496 V24 H495 V23 H492 V22 H487 V23 H485 V24 H483 V25 H482 V26 H480 V27 H479 V22 H476 V23 H472 V24 H468 V25 H463 V26 H462 V29 H465 V30 H467 V56 H466 V57 H461 V61 H482 V60 H483 V58 H482 V57 H479 V32 H480 V31 H482 V30 H486 V31 H488 V33 H489 V56 H488 V57 H485 V61 H505 V74 H114 Z M207 12 H208 V11 H214 V12 H216 V13 H217 V14 H218 V15 H219 V19 H220 V26 H219 V30 H218 V32 H217 V33 H216 V34 H214 V35 H208 V34 H207 Z M235 58 V61 H260 V57 H254 V56 H253 V35 H254 V34 H255 V33 H259 V34 H260 V35 H264 V34 H265 V33 H266 V32 H267 V30 H268 V27 H267 V25 H266 V24 H265 V23 H264 V22 H260 V23 H258 V24 H257 V25 H256 V26 H255 V27 H254 V28 H253 V22 H250 V23 H247 V24 H242 V25 H237 V26 H236 V29 H239 V30 H241 V56 H240 V57 H236 V58 Z M252 29 H253 V30 H252 Z M268 40 V47 H269 V51 H270 V54 H271 V55 H272 V56 H273 V57 H274 V58 H275 V59 H276 V60 H278 V61 H281 V62 H290 V61 H292 V60 H294 V59 H296 V58 H297 V57 H298 V56 H299 V55 H300 V54 H301 V51 H300 V50 H298 V51 H297 V52 H294 V53 H287 V52 H284 V51 H283 V50 H282 V48 H281 V45 H280 V41 H293 V40 H300 V39 H301 V37 H302 V35 H301 V31 H300 V29 H299 V28 H298 V27 H297 V26 H296 V25 H295 V24 H293 V23 H291 V22 H284 V23 H282 V24 H280 V25 H278 V26 H276 V27 H275 V28 H274 V29 H273 V31 H272 V32 H271 V34 H270 V36 H269 V40 Z M280 35 H281 V30 H282 V29 H283 V28 H284 V27 H287 V28 H289 V30 H290 V36 H280 Z M305 39 V49 H306 V52 H307 V53 H308 V55 H309 V56 H310 V57 H311 V58 H312 V59 H314 V60 H316 V61 H318 V62 H327 V61 H330 V60 H331 V59 H333 V58 H334 V57 H335 V56 H336 V55 H337 V54 H338 V51 H337 V50 H335 V51 H334 V52 H331 V53 H324 V52 H322 V51 H321 V50 H320 V49 H319 V48 H318 V45 H317 V33 H318 V30 H319 V29 H321 V28 H325 V29 H327 V30 H329 V31 H330 V32 H331 V33 H335 V32 H336 V30 H337 V26 H336 V25 H335 V24 H334 V23 H331 V22 H324 V23 H321 V24 H319 V25 H317 V26 H315 V27 H314 V28 H312 V29 H311 V30 H310 V31 H309 V33 H308 V34 H307 V36 H306 V39 Z M339 58 V61 H362 V57 H358 V56 H357 V22 H354 V23 H351 V24 H346 V25 H340 V29 H343 V30 H345 V56 H344 V57 H340 V58 Z M364 47 V50 H365 V58 H366 V59 H367 V60 H369 V61 H372 V62 H382 V61 H384 V60 H386 V59 H388 V58 H389 V57 H390 V55 H391 V53 H392 V45 H391 V43 H390 V42 H389 V41 H388 V40 H387 V39 H385 V38 H383 V37 H381 V36 H379 V35 H377 V34 H376 V33 H375 V29 H376 V28 H377 V27 H381 V28 H383 V29 H384 V31 H385 V33 H386 V35 H390 V34 H391 V32 H390 V27 H389 V24 H387 V23 H384 V22 H376 V23 H373 V24 H371 V25 H370 V26 H369 V27 H368 V28 H367 V30 H366 V32 H365 V37 H366 V40 H367 V41 H368 V42 H369 V43 H370 V44 H371 V45 H373 V46 H374 V47 H376 V48 H378 V49 H380 V50 H381 V51 H382 V56 H381 V57 H375 V56 H373 V55 H372 V53 H371 V52 H370 V50 H369 V47 Z M395 26 V29 H399 V30 H400 V56 H399 V57 H395 V61 H417 V57 H413 V56 H412 V22 H410 V23 H406 V24 H401 V25 H396 V26 Z M419 40 V45 H420 V50 H421 V52 H422 V53 H423 V55 H424 V56 H425 V57 H426 V58 H427 V59 H429 V60 H431 V61 H434 V62 H445 V61 H447 V60 H449 V59 H451 V58 H452 V57 H453 V56 H454 V55 H455 V54 H456 V52 H457 V50 H458 V48 H459 V36 H458 V34 H457 V32 H456 V30 H455 V29 H454 V28 H453 V27 H452 V26 H451 V25 H449 V24 H447 V23 H444 V22 H436 V23 H433 V24 H431 V25 H429 V26 H427 V27 H426 V28 H425 V29 H424 V30 H423 V32 H422 V33 H421 V36 H420 V40 Z M433 33 H434 V30 H435 V28 H437 V27 H441 V28 H442 V29 H443 V30 H444 V32 H445 V38 H446 V50 H445 V55 H444 V56 H443 V57 H437 V56 H436 V54 H435 V52 H434 V48 H433 Z" fill="#014099" fill-opacity="0" fill-rule="evenodd"/>
  <path d="M6 7 H44 V19 H42 V16 H41 V14 H40 V13 H39 V12 H38 V11 H37 V10 H23 V11 H22 V32 H36 V31 H38 V29 H39 V26 H41 V41 H39 V38 H38 V37 H37 V36 H35 V35 H22 V54 H23 V56 H24 V57 H26 V58 H30 V60 H6 V58 H10 V57 H11 V56 H12 V53 H13 V14 H12 V11 H11 V10 H8 V9 H6 Z M50 7 H74 V9 H71 V10 H69 V11 H68 V12 H67 V43 H68 V47 H69 V50 H70 V51 H71 V53 H72 V54 H74 V55 H75 V56 H78 V57 H84 V56 H87 V55 H89 V54 H90 V53 H91 V52 H92 V50 H93 V48 H94 V46 H95 V40 H96 V19 H95 V13 H94 V12 H93 V11 H92 V10 H90 V9 H87 V7 H106 V9 H104 V10 H102 V11 H100 V13 H99 V20 H98 V45 H97 V49 H96 V51 H95 V53 H94 V54 H93 V56 H91 V57 H90 V58 H88 V59 H86 V60 H83 V61 H72 V60 H69 V59 H66 V58 H65 V57 H63 V56 H62 V55 H61 V53 H60 V51 H59 V48 H58 V43 H57 V12 H56 V11 H55 V10 H53 V9 H50 Z M109 71 H111 V70 H112 V69 H113 V68 H114 V67 H115 V66 H116 V63 H117 V58 H118 V12 H117 V11 H116 V10 H114 V9 H111 V7 H134 V9 H132 V10 H129 V12 H128 V52 H127 V57 H126 V60 H125 V63 H124 V64 H123 V65 H122 V67 H121 V68 H119 V69 H118 V70 H117 V71 H115 V72 H113 V73 H110 V72 H109 Z M141 7 H164 V9 H161 V10 H159 V11 H158 V14 H157 V53 H158 V56 H159 V57 H160 V58 H164 V60 H141 V58 H145 V57 H146 V56 H147 V54 H148 V13 H147 V11 H146 V10 H144 V9 H141 Z M189 59 H190 V58 H194 V57 H195 V56 H196 V11 H195 V10 H192 V9 H190 V7 H216 V8 H222 V9 H224 V10 H226 V11 H227 V12 H228 V13 H229 V14 H230 V16 H231 V20 H232 V24 H231 V28 H230 V31 H229 V32 H228 V33 H227 V34 H226 V35 H225 V36 H223 V37 H220 V38 H216 V39 H211 V38 H208 V37 H206 V55 H207 V57 H209 V58 H214 V60 H189 Z M206 11 V36 H215 V35 H216 V34 H217 V33 H218 V32 H219 V31 H220 V29 H221 V17 H220 V14 H219 V13 H218 V12 H217 V11 H216 V10 H212 V9 H209 V10 H207 V11 Z M237 59 H238 V58 H240 V57 H241 V56 H242 V30 H241 V29 H240 V28 H238 V27 H239 V26 H245 V25 H248 V24 H251 V32 H253 V31 H254 V29 H255 V28 H256 V27 H257 V25 H259 V24 H265 V25 H266 V31 H265 V32 H264 V33 H263 V34 H261 V33 H260 V32 H258 V31 H255 V32 H254 V33 H253 V34 H252 V36 H251 V55 H252 V57 H253 V58 H257 V59 H258 V60 H237 Z M270 37 H271 V35 H272 V33 H273 V31 H274 V30 H275 V29 H276 V28 H277 V27 H279 V26 H280 V25 H282 V24 H292 V25 H294 V26 H295 V27 H297 V28 H298 V30 H299 V32 H300 V38 H298 V39 H285 V40 H278 V43 H279 V47 H280 V49 H281 V50 H282 V51 H283 V52 H284 V53 H285 V54 H289 V55 H291 V54 H296 V53 H297 V52 H298 V51 H300 V53 H299 V54 H298 V55 H297 V56 H296 V57 H295 V58 H293 V59 H291 V60 H288 V61 H282 V60 H279 V59 H277 V58 H276 V57 H274 V56 H273 V54 H272 V53 H271 V50 H270 Z M279 32 V38 H281 V37 H291 V30 H290 V28 H289 V27 H288 V26 H283 V27 H282 V28 H281 V29 H280 V32 Z M306 41 H307 V37 H308 V35 H309 V34 H310 V32 H311 V31 H312 V30 H313 V29 H314 V28 H316 V27 H318 V26 H320 V25 H322 V24 H333 V25 H335 V27 H336 V29 H335 V31 H334 V32 H332 V31 H331 V30 H329 V29 H328 V28 H326 V27 H323 V26 H322 V27 H320 V28 H319 V29 H318 V30 H317 V32 H316 V34 H315 V44 H316 V46 H317 V48 H318 V50 H319 V51 H320 V52 H321 V53 H323 V54 H326 V55 H329 V54 H333 V53 H335 V52 H337 V53 H336 V54 H335 V55 H334 V56 H333 V57 H332 V58 H330 V59 H329 V60 H326 V61 H320 V60 H317 V59 H315 V58 H313 V57 H312 V56 H311 V55 H310 V54 H309 V52 H308 V50 H307 V47 H306 Z M341 27 H342 V26 H348 V25 H352 V24 H355 V56 H356 V57 H357 V58 H360 V59 H361 V60 H341 V59 H342 V58 H344 V57 H345 V56 H346 V30 H345 V29 H344 V28 H341 Z M345 9 H346 V8 H347 V7 H353 V8 H354 V9 H355 V15 H354 V16 H352 V17 H348 V16 H346 V14 H345 Z M366 48 H368 V51 H369 V53 H370 V54 H371 V55 H372 V56 H373 V57 H374 V58 H376 V59 H381 V58 H382 V57 H383 V54 H384 V53 H383 V51 H382 V49 H380 V48 H379 V47 H377 V46 H375 V45 H373 V44 H372 V43 H371 V42 H370 V41 H369 V40 H368 V38 H367 V31 H368 V29 H369 V28 H370 V27 H371 V26 H372 V25 H374 V24 H386 V25 H388 V30 H389 V34 H387 V32 H386 V30 H385 V29 H384 V28 H383 V27 H382 V26 H376 V27 H375 V28 H374 V33 H375 V34 H376 V35 H377 V36 H378 V37 H380 V38 H382 V39 H384 V40 H386 V41 H387 V42 H388 V43 H389 V44 H390 V47 H391 V52 H390 V55 H389 V56 H388 V57 H387 V58 H385 V59 H383 V60 H380 V61 H373 V60 H370 V59 H368 V58 H367 V55 H366 Z M396 59 H397 V58 H400 V57 H401 V29 H399 V28 H397 V26 H404 V25 H408 V24 H410 V55 H411 V57 H412 V58 H415 V59 H416 V60 H396 Z M400 10 H401 V8 H403 V7 H408 V8 H409 V9 H410 V15 H409 V16 H407 V17 H403 V16 H402 V15 H401 V14 H400 Z M421 37 H422 V35 H423 V33 H424 V31 H425 V30 H426 V29 H427 V28 H428 V27 H430 V26 H432 V25 H434 V24 H446 V25 H448 V26 H450 V27 H451 V28 H453 V30 H454 V31 H455 V33 H456 V35 H457 V39 H458 V45 H457 V49 H456 V51 H455 V53 H454 V55 H453 V56 H452 V57 H450 V58 H448 V59 H446 V60 H443 V61 H436 V60 H432 V59 H430 V58 H428 V57 H427 V56 H426 V55 H425 V54 H424 V53 H423 V51 H422 V48 H421 Z M431 35 V46 H432 V50 H433 V53 H434 V55 H435 V56 H436 V57 H437 V58 H438 V59 H443 V58 H444 V57 H445 V55 H446 V53 H447 V35 H446 V31 H445 V29 H444 V28 H443 V27 H442 V26 H436 V27 H435 V28 H434 V29 H433 V31 H432 V35 Z M463 58 H466 V57 H468 V30 H467 V29 H466 V28 H464 V26 H470 V25 H474 V24 H477 V29 H480 V28 H481 V27 H482 V26 H484 V25 H486 V24 H494 V25 H495 V26 H497 V28 H498 V30 H499 V55 H500 V57 H501 V58 H504 V59 H505 V60 H486 V59 H487 V58 H489 V57 H490 V32 H489 V31 H488 V30 H487 V29 H481 V30 H479 V31 H477 V55 H478 V57 H479 V58 H481 V60 H463 Z" fill="#014099" fill-rule="evenodd"/>
  <path d="M6 6 H43 V7 H6 Z M51 6 H73 V7 H51 Z M88 6 H105 V7 H88 Z M111 6 H134 V7 H111 Z M141 6 H164 V7 H141 Z M191 6 H213 V7 H191 Z M195 16 H196 V17 H195 Z M195 50 H196 V51 H195 Z M370 25 H371 V26 H370 Z M385 31 H386 V32 H385 Z M400 15 H401 V16 H400 Z M432 45 H433 V46 H432 Z M456 32 H457 V33 H456 Z M458 43 H459 V44 H458 Z M495 24 H496 V25 H495 Z" fill="#014099" fill-opacity="0.294118" fill-rule="evenodd"/>
  <path d="M8 60 H28 V61 H8 Z M115 64 H116 V65 H115 Z M143 60 H162 V61 H143 Z M191 60 H213 V61 H191 Z M212 39 H213 V40 H212 Z M238 57 H239 V58 H238 Z M239 60 H256 V61 H239 Z M241 31 H242 V32 H241 Z M282 50 H283 V51 H282 Z M295 39 H296 V40 H295 Z M343 60 H359 V61 H343 Z M346 16 H347 V17 H346 Z M360 60 H361 V61 H360 Z M367 47 H368 V48 H367 Z M374 29 H375 V30 H374 Z M379 36 H380 V37 H379 Z M397 60 H414 V61 H397 Z M465 60 H480 V61 H465 Z M467 52 H468 V53 H467 Z M489 60 H502 V61 H489 Z" fill="#014099" fill-opacity="0.505882" fill-rule="evenodd"/>
  <path d="M40 42 H41 V43 H40 Z M85 8 H86 V9 H85 Z M99 26 H100 V37 H99 Z M110 69 H111 V70 H110 Z M146 17 H147 V50 H146 Z M222 7 H223 V8 H222 Z M237 25 H238 V26 H237 Z M251 22 H252 V23 H251 Z M252 26 H253 V27 H252 Z M252 38 H253 V51 H252 Z M260 34 H261 V35 H260 Z M281 48 H282 V49 H281 Z M289 61 H290 V62 H289 Z M369 50 H370 V51 H369 Z M434 29 H435 V30 H434 Z M441 22 H442 V23 H441 Z M446 23 H447 V24 H446 Z" fill="#014099" fill-opacity="0.113725" fill-rule="evenodd"/>
  <path d="M12 17 H13 V49 H12 Z M98 37 H99 V38 H98 Z M117 56 H118 V57 H117 Z M118 69 H119 V70 H118 Z M272 32 H273 V33 H272 Z M283 26 H284 V27 H283 Z M355 24 H356 V25 H355 Z M374 28 H375 V29 H374 Z M378 23 H379 V24 H378 Z M381 23 H382 V24 H381 Z M424 54 H425 V55 H424 Z M431 37 H432 V38 H431 Z M434 54 H435 V55 H434 Z M477 34 H478 V52 H477 Z M488 57 H489 V58 H488 Z" fill="#014099" fill-opacity="0.890196" fill-rule="evenodd"/>
  <path d="M11 17 H12 V50 H11 Z M23 50 H24 V51 H23 Z M86 54 H87 V55 H86 Z M146 52 H147 V53 H146 Z M214 57 H215 V58 H214 Z M328 53 H329 V54 H328 Z M336 50 H337 V51 H336 Z M367 28 H368 V29 H367 Z M425 28 H426 V29 H425 Z M440 22 H441 V23 H440 Z M478 34 H479 V52 H478 Z M483 24 H484 V25 H483 Z" fill="#014099" fill-opacity="0.141176" fill-rule="evenodd"/>
  <path d="M30 60 H31 V61 H30 Z M56 18 H57 V37 H56 Z M92 48 H93 V49 H92 Z M116 71 H117 V72 H116 Z M128 17 H129 V45 H128 Z M230 30 H231 V31 H230 Z M255 32 H256 V33 H255 Z M374 30 H375 V31 H374 Z M400 8 H401 V9 H400 Z M400 51 H401 V52 H400 Z M446 45 H447 V46 H446 Z M463 28 H464 V29 H463 Z" fill="#014099" fill-opacity="0.364706" fill-rule="evenodd"/>
  <path d="M72 61 H73 V62 H72 Z M73 6 H74 V7 H73 Z M87 6 H88 V7 H87 Z M144 56 H145 V57 H144 Z M190 6 H191 V7 H190 Z M195 17 H196 V50 H195 Z M291 60 H292 V61 H291 Z M316 60 H317 V61 H316 Z M321 51 H322 V52 H321 Z M322 23 H323 V24 H322 Z M355 14 H356 V15 H355 Z M360 57 H361 V58 H360 Z M379 61 H380 V62 H379 Z M500 52 H501 V53 H500 Z" fill="#014099" fill-opacity="0.298039" fill-rule="evenodd"/>
  <path d="M40 17 H41 V18 H40 Z M45 17 H46 V18 H45 Z M84 61 H85 V62 H84 Z M85 6 H86 V7 H85 Z M87 10 H88 V11 H87 Z M111 10 H112 V11 H111 Z M135 7 H136 V8 H135 Z M143 56 H144 V57 H143 Z M161 56 H162 V57 H161 Z M253 28 H254 V29 H253 Z M268 40 H269 V41 H268 Z M339 59 H340 V60 H339 Z M356 24 H357 V50 H356 Z M356 51 H357 V52 H356 Z M365 36 H366 V37 H365 Z M401 24 H402 V25 H401 Z M433 48 H434 V49 H433 Z M445 37 H446 V38 H445 Z" fill="#014099" fill-opacity="0.0235294" fill-rule="evenodd"/>
  <path d="M11 15 H12 V16 H11 Z M113 10 H114 V11 H113 Z M145 11 H146 V12 H145 Z M158 16 H159 V17 H158 Z M158 18 H159 V50 H158 Z M216 6 H217 V7 H216 Z M229 12 H230 V13 H229 Z M290 53 H291 V54 H290 Z M294 24 H295 V25 H294 Z M389 29 H390 V30 H389 Z M432 37 H433 V38 H432 Z" fill="#014099" fill-opacity="0.156863" fill-rule="evenodd"/>
  <path d="M38 28 H39 V29 H38 Z M52 9 H53 V10 H52 Z M68 46 H69 V47 H68 Z M98 25 H99 V26 H98 Z M147 14 H148 V15 H147 Z M157 17 H158 V50 H157 Z M252 34 H253 V35 H252 Z M290 36 H291 V37 H290 Z M335 54 H336 V55 H335 Z M347 25 H348 V26 H347 Z" fill="#014099" fill-opacity="0.905882" fill-rule="evenodd"/>
  <path d="M79 56 H80 V57 H79 Z M147 17 H148 V50 H147 Z M230 29 H231 V30 H230 Z M260 23 H261 V24 H260 Z M269 40 H270 V41 H269 Z M289 39 H290 V40 H289 Z M345 55 H346 V56 H345 Z M446 51 H447 V52 H446 Z M477 28 H478 V29 H477 Z M480 27 H481 V28 H480 Z" fill="#014099" fill-opacity="0.85098" fill-rule="evenodd"/>
  <path d="M9 57 H10 V58 H9 Z M37 30 H38 V31 H37 Z M64 57 H65 V58 H64 Z M95 20 H96 V21 H95 Z M100 11 H101 V12 H100 Z M125 60 H126 V61 H125 Z M147 13 H148 V14 H147 Z M237 58 H238 V59 H237 Z M264 32 H265 V33 H264 Z M308 52 H309 V53 H308 Z M367 38 H368 V39 H367 Z M370 42 H371 V43 H370 Z M390 46 H391 V47 H390 Z M396 58 H397 V59 H396 Z M407 16 H408 V17 H407 Z M410 24 H411 V25 H410 Z M412 57 H413 V58 H412 Z M431 35 H432 V36 H431 Z M435 60 H436 V61 H435 Z M448 58 H449 V59 H448 Z M486 58 H487 V59 H486 Z M499 34 H500 V54 H499 Z" fill="#014099" fill-opacity="0.984314" fill-rule="evenodd"/>
  <path d="M91 51 H92 V52 H91 Z M157 15 H158 V16 H157 Z M195 55 H196 V56 H195 Z M297 55 H298 V56 H297 Z M299 31 H300 V32 H299 Z M327 54 H328 V55 H327 Z M368 40 H369 V41 H368 Z M380 23 H381 V24 H380 Z M380 37 H381 V38 H380 Z M400 9 H401 V10 H400 Z M410 10 H411 V11 H410 Z M410 26 H411 V51 H410 Z M410 53 H411 V54 H410 Z M432 49 H433 V50 H432 Z M443 60 H444 V61 H443 Z M473 24 H474 V25 H473 Z" fill="#014099" fill-opacity="0.929412" fill-rule="evenodd"/>
  <path d="M23 14 H24 V29 H23 Z M23 38 H24 V50 H23 Z M89 52 H90 V53 H89 Z M99 22 H100 V23 H99 Z M194 55 H195 V56 H194 Z M286 22 H287 V23 H286 Z M381 22 H382 V23 H381 Z M395 57 H396 V58 H395 Z M438 22 H439 V23 H438 Z M461 58 H462 V59 H461 Z M478 26 H479 V27 H478 Z" fill="#014099" fill-opacity="0.12549" fill-rule="evenodd"/>
  <path d="M22 14 H23 V29 H22 Z M22 38 H23 V48 H22 Z M86 7 H87 V8 H86 Z M147 51 H148 V52 H147 Z M253 30 H254 V31 H253 Z M278 59 H279 V60 H278 Z M355 11 H356 V13 H355 Z M396 27 H397 V28 H396 Z M441 23 H442 V24 H441 Z M499 32 H500 V33 H499 Z" fill="#014099" fill-opacity="0.870588" fill-rule="evenodd"/>
  <path d="M23 55 H24 V56 H23 Z M140 8 H141 V9 H140 Z M191 9 H192 V10 H191 Z M217 7 H218 V8 H217 Z M316 45 H317 V46 H316 Z M320 27 H321 V28 H320 Z M355 25 H356 V50 H355 Z M355 51 H356 V52 H355 Z M425 29 H426 V30 H425 Z M446 24 H447 V25 H446 Z" fill="#014099" fill-opacity="0.847059" fill-rule="evenodd"/>
  <path d="M28 57 H29 V58 H28 Z M59 52 H60 V53 H59 Z M111 69 H112 V70 H111 Z M206 14 H207 V32 H206 Z M206 41 H207 V50 H206 Z M354 15 H355 V16 H354 Z M377 35 H378 V36 H377 Z M400 30 H401 V31 H400 Z M430 59 H431 V60 H430 Z" fill="#014099" fill-opacity="0.635294" fill-rule="evenodd"/>
  <path d="M44 8 H45 V9 H44 Z M83 61 H84 V62 H83 Z M158 53 H159 V54 H158 Z M292 23 H293 V24 H292 Z M388 25 H389 V26 H388 Z M411 12 H412 V13 H411 Z M411 26 H412 V51 H411 Z M411 53 H412 V54 H411 Z" fill="#014099" fill-opacity="0.203922" fill-rule="evenodd"/>
  <path d="M22 12 H23 V13 H22 Z M22 37 H23 V38 H22 Z M30 59 H31 V60 H30 Z M35 10 H36 V11 H35 Z M82 56 H83 V57 H82 Z M132 9 H133 V10 H132 Z M223 36 H224 V37 H223 Z M251 26 H252 V28 H251 Z M251 31 H252 V32 H251 Z M251 38 H252 V54 H251 Z M260 33 H261 V34 H260 Z M298 29 H299 V30 H298 Z M309 54 H310 V55 H309 Z M325 27 H326 V28 H325 Z M385 30 H386 V31 H385 Z M462 58 H463 V59 H462 Z" fill="#014099" fill-opacity="0.858824" fill-rule="evenodd"/>
  <path d="M114 66 H115 V67 H114 Z M117 18 H118 V45 H117 Z M206 50 H207 V51 H206 Z M241 25 H242 V26 H241 Z M348 6 H349 V7 H348 Z" fill="#014099" fill-opacity="0.631373" fill-rule="evenodd"/>
  <path d="M5 58 H6 V59 H5 Z M12 16 H13 V17 H12 Z M98 26 H99 V36 H98 Z M147 52 H148 V53 H147 Z M164 58 H165 V59 H164 Z M251 24 H252 V25 H251 Z M269 45 H270 V46 H269 Z M281 60 H282 V61 H281 Z M306 47 H307 V48 H306 Z M315 27 H316 V28 H315 Z M320 51 H321 V52 H320 Z M323 53 H324 V54 H323 Z M333 56 H334 V57 H333 Z M372 60 H373 V61 H372 Z M378 47 H379 V48 H378 Z M379 58 H380 V59 H379 Z M390 45 H391 V46 H390 Z M454 30 H455 V31 H454 Z M463 27 H464 V28 H463 Z M477 53 H478 V54 H477 Z M489 56 H490 V57 H489 Z" fill="#014099" fill-opacity="0.898039" fill-rule="evenodd"/>
  <path d="M45 16 H46 V17 H45 Z M65 59 H66 V60 H65 Z M69 45 H70 V46 H69 Z M77 62 H79 V63 H77 Z M91 49 H92 V50 H91 Z M100 14 H101 V15 H100 Z M109 7 H110 V8 H109 Z M109 9 H110 V10 H109 Z M116 52 H117 V53 H116 Z M135 6 H136 V7 H135 Z M139 6 H140 V7 H139 Z M139 60 H140 V61 H139 Z M165 6 H166 V7 H165 Z M192 56 H193 V57 H192 Z M219 18 H220 V19 H219 Z M230 13 H231 V14 H230 Z M236 28 H237 V29 H236 Z M276 26 H277 V27 H276 Z M355 8 H356 V9 H355 Z M364 49 H365 V50 H364 Z M366 39 H367 V40 H366 Z M368 47 H369 V48 H368 Z M390 33 H391 V34 H390 Z M395 28 H396 V29 H395 Z M421 33 H422 V34 H421 Z M458 47 H459 V48 H458 Z M462 28 H463 V29 H462 Z M500 31 H501 V32 H500 Z" fill="#014099" fill-opacity="0.00784314" fill-rule="evenodd"/>
  <path d="M11 11 H12 V12 H11 Z M12 14 H13 V15 H12 Z M88 54 H89 V55 H88 Z M95 23 H96 V36 H95 Z M126 57 H127 V58 H126 Z M194 10 H195 V11 H194 Z M216 38 H217 V39 H216 Z M285 53 H286 V54 H285 Z M310 55 H311 V56 H310 Z M326 54 H327 V55 H326 Z M328 54 H329 V55 H328 Z M370 26 H371 V27 H370 Z M380 60 H381 V61 H380 Z M386 24 H387 V25 H386 Z M410 54 H411 V55 H410 Z M421 48 H422 V49 H421 Z M451 27 H452 V28 H451 Z" fill="#014099" fill-opacity="0.964706" fill-rule="evenodd"/>
  <path d="M25 36 H32 V37 H25 Z M45 15 H46 V16 H45 Z M50 10 H51 V11 H50 Z M99 41 H100 V42 H99 Z M165 57 H166 V58 H165 Z M219 6 H220 V7 H219 Z M219 26 H220 V27 H219 Z M259 57 H260 V58 H259 Z M263 22 H264 V23 H263 Z M267 29 H268 V30 H267 Z M270 53 H271 V54 H270 Z M280 34 H281 V35 H280 Z M280 45 H281 V46 H280 Z M301 36 H302 V37 H301 Z M339 60 H340 V61 H339 Z M364 47 H365 V48 H364 Z M378 57 H379 V58 H378 Z M389 27 H390 V28 H389 Z M390 32 H391 V33 H390 Z M419 40 H420 V41 H419 Z M440 57 H441 V58 H440 Z M499 28 H500 V29 H499 Z" fill="#014099" fill-opacity="0.00392157" fill-rule="evenodd"/>
  <path d="M7 60 H8 V61 H7 Z M100 12 H101 V13 H100 Z M142 60 H143 V61 H142 Z M162 60 H163 V61 H162 Z M238 60 H239 V61 H238 Z M256 60 H257 V61 H256 Z M342 60 H343 V61 H342 Z M375 23 H376 V24 H375 Z M464 60 H465 V61 H464 Z M467 33 H468 V34 H467 Z M467 35 H468 V51 H467 Z M488 60 H489 V61 H488 Z M502 60 H503 V61 H502 Z" fill="#014099" fill-opacity="0.501961" fill-rule="evenodd"/>
  <path d="M40 15 H41 V16 H40 Z M116 60 H117 V61 H116 Z M270 35 H271 V36 H270 Z M345 35 H346 V51 H345 Z M345 53 H346 V54 H345 Z M370 60 H371 V61 H370 Z M403 17 H404 V18 H403 Z M420 39 H421 V40 H420 Z M421 35 H422 V36 H421 Z M466 29 H467 V30 H466 Z M467 34 H468 V35 H467 Z M467 51 H468 V52 H467 Z M475 23 H476 V24 H475 Z" fill="#014099" fill-opacity="0.494118" fill-rule="evenodd"/>
  <path d="M44 10 H45 V11 H44 Z M68 60 H69 V61 H68 Z M244 24 H245 V25 H244 Z M285 26 H286 V27 H285 Z M361 58 H362 V59 H361 Z M382 54 H383 V55 H382 Z M389 30 H390 V31 H389 Z M390 54 H391 V55 H390 Z M445 23 H446 V24 H445 Z M486 57 H487 V58 H486 Z M500 37 H501 V52 H500 Z M500 53 H501 V54 H500 Z" fill="#014099" fill-opacity="0.301961" fill-rule="evenodd"/>
  <path d="M144 10 H145 V11 H144 Z M214 58 H215 V59 H214 Z M220 20 H221 V21 H220 Z M241 34 H242 V53 H241 Z M291 23 H292 V24 H291 Z M306 49 H307 V50 H306 Z M496 25 H497 V26 H496 Z" fill="#014099" fill-opacity="0.435294" fill-rule="evenodd"/>
  <path d="M140 57 H141 V58 H140 Z M237 57 H238 V58 H237 Z M257 57 H258 V58 H257 Z M272 55 H273 V56 H272 Z M286 26 H287 V27 H286 Z M314 59 H315 V60 H314 Z M332 23 H333 V24 H332 Z M365 47 H366 V48 H365 Z M400 36 H401 V50 H400 Z M415 57 H416 V58 H415 Z M441 61 H442 V62 H441 Z M458 40 H459 V41 H458 Z" fill="#014099" fill-opacity="0.341176" fill-rule="evenodd"/>
  <path d="M22 53 H23 V54 H22 Z M41 16 H42 V17 H41 Z M95 19 H96 V20 H95 Z M122 65 H123 V66 H122 Z M129 10 H130 V11 H129 Z M161 9 H162 V10 H161 Z M207 37 H208 V38 H207 Z M215 10 H216 V11 H215 Z M230 28 H231 V29 H230 Z M231 24 H232 V25 H231 Z M255 31 H256 V32 H255 Z M275 57 H276 V58 H275 Z M279 37 H280 V38 H279 Z M289 54 H290 V55 H289 Z M315 34 H316 V35 H315 Z M315 43 H316 V44 H315 Z M345 14 H346 V15 H345 Z M380 58 H381 V59 H380 Z M383 53 H384 V54 H383 Z M401 15 H402 V16 H401 Z M403 25 H404 V26 H403 Z M457 38 H458 V39 H457 Z M485 24 H486 V25 H485 Z M499 54 H500 V55 H499 Z" fill="#014099" fill-opacity="0.996078" fill-rule="evenodd"/>
  <path d="M5 60 H6 V61 H5 Z M164 60 H165 V61 H164 Z M207 38 H208 V39 H207 Z M211 39 H212 V40 H211 Z M284 61 H285 V62 H284 Z M355 9 H356 V10 H355 Z M380 57 H381 V58 H380 Z M391 51 H392 V52 H391 Z M470 24 H471 V25 H470 Z M489 38 H490 V51 H489 Z" fill="#014099" fill-opacity="0.396078" fill-rule="evenodd"/>
  <path d="M6 57 H7 V58 H6 Z M67 18 H68 V19 H67 Z M67 20 H68 V35 H67 Z M206 39 H207 V40 H206 Z M273 30 H274 V31 H273 Z M345 31 H346 V32 H345 Z M389 33 H390 V34 H389 Z M464 57 H465 V58 H464 Z" fill="#014099" fill-opacity="0.6" fill-rule="evenodd"/>
  <path d="M42 20 H43 V21 H42 Z M99 40 H100 V41 H99 Z M105 10 H106 V11 H105 Z M128 54 H129 V55 H128 Z M139 8 H140 V9 H139 Z M139 58 H140 V59 H139 Z M141 10 H142 V11 H141 Z M165 7 H166 V8 H165 Z M275 27 H276 V28 H275 Z M305 48 H306 V49 H305 Z M307 34 H308 V35 H307 Z M353 6 H354 V7 H353 Z M371 24 H372 V25 H371 Z M376 22 H377 V23 H376 Z M388 24 H389 V25 H388 Z M408 17 H409 V18 H408 Z M411 22 H412 V23 H411 Z M419 43 H420 V44 H419 Z M445 50 H446 V51 H445 Z M458 36 H459 V37 H458 Z" fill="#014099" fill-opacity="0.0313725" fill-rule="evenodd"/>
  <path d="M32 36 H33 V37 H32 Z M34 11 H35 V12 H34 Z M38 42 H39 V43 H38 Z M45 19 H46 V20 H45 Z M54 11 H55 V12 H54 Z M68 40 H69 V41 H68 Z M73 10 H74 V11 H73 Z M135 9 H136 V10 H135 Z M207 34 H208 V35 H207 Z M242 24 H243 V25 H242 Z M280 33 H281 V34 H280 Z M290 22 H291 V23 H290 Z M309 31 H310 V32 H309 Z M331 52 H332 V53 H331 Z M371 53 H372 V54 H371 Z M385 32 H386 V33 H385 Z M419 44 H420 V45 H419 Z M439 57 H440 V58 H439 Z M461 57 H462 V58 H461 Z M482 59 H483 V60 H482 Z" fill="#014099" fill-opacity="0.0156863" fill-rule="evenodd"/>
  <path d="M10 55 H11 V56 H10 Z M90 58 H91 V59 H90 Z M97 49 H98 V50 H97 Z M108 70 H109 V71 H108 Z M112 10 H113 V11 H112 Z M114 65 H115 V66 H114 Z M223 37 H224 V38 H223 Z M323 52 H324 V53 H323 Z M327 29 H328 V30 H327 Z M332 58 H333 V59 H332 Z M355 22 H356 V23 H355 Z M356 53 H357 V54 H356 Z M365 35 H366 V36 H365 Z M381 61 H382 V62 H381 Z M399 9 H400 V10 H399 Z M411 10 H412 V11 H411 Z M432 38 H433 V39 H432 Z M445 51 H446 V52 H445 Z M468 24 H469 V25 H468 Z M485 60 H486 V61 H485 Z" fill="#014099" fill-opacity="0.0862745" fill-rule="evenodd"/>
  <path d="M22 11 H23 V12 H22 Z M95 36 H96 V37 H95 Z M113 9 H114 V10 H113 Z M144 57 H145 V58 H144 Z M147 53 H148 V54 H147 Z M157 14 H158 V15 H157 Z M206 35 H207 V36 H206 Z M216 7 H217 V8 H216 Z M227 33 H228 V34 H227 Z M256 31 H257 V32 H256 Z M321 52 H322 V53 H321 Z M335 29 H336 V30 H335 Z M341 26 H342 V27 H341 Z M367 58 H368 V59 H367 Z M385 58 H386 V59 H385 Z M400 29 H401 V30 H400 Z M446 59 H447 V60 H446 Z M455 51 H456 V52 H455 Z M477 54 H478 V55 H477 Z" fill="#014099" fill-opacity="0.968627" fill-rule="evenodd"/>
  <path d="M5 59 H6 V60 H5 Z M78 56 H79 V57 H78 Z M86 59 H87 V60 H86 Z M99 13 H100 V14 H99 Z M115 65 H116 V66 H115 Z M123 64 H124 V65 H123 Z M164 8 H165 V9 H164 Z M209 9 H210 V10 H209 Z M251 54 H252 V55 H251 Z M269 43 H270 V44 H269 Z M387 41 H388 V42 H387 Z M410 25 H411 V26 H410 Z M410 51 H411 V53 H410 Z M411 56 H412 V57 H411 Z M446 35 H447 V36 H446 Z M457 37 H458 V38 H457 Z M497 27 H498 V28 H497 Z M501 57 H502 V58 H501 Z" fill="#014099" fill-opacity="0.92549" fill-rule="evenodd"/>
  <path d="M109 8 H110 V9 H109 Z M139 7 H140 V8 H139 Z M145 55 H146 V56 H145 Z M165 9 H166 V10 H165 Z M231 29 H232 V30 H231 Z M259 60 H260 V61 H259 Z M284 22 H285 V23 H284 Z M286 52 H287 V53 H286 Z M287 27 H288 V28 H287 Z M345 7 H346 V8 H345 Z M354 22 H355 V23 H354 Z M356 11 H357 V13 H356 Z M356 50 H357 V51 H356 Z M419 41 H420 V42 H419 Z M420 49 H421 V50 H420 Z M443 22 H444 V23 H443 Z M482 58 H483 V59 H482 Z" fill="#014099" fill-opacity="0.0196078" fill-rule="evenodd"/>
  <path d="M45 18 H46 V19 H45 Z M91 11 H92 V12 H91 Z M113 73 H114 V74 H113 Z M116 13 H117 V14 H116 Z M116 54 H117 V55 H116 Z M225 36 H226 V37 H225 Z M235 58 H236 V60 H235 Z M325 28 H326 V29 H325 Z M334 32 H335 V33 H334 Z M356 23 H357 V24 H356 Z M356 52 H357 V53 H356 Z M389 56 H390 V57 H389 Z M391 45 H392 V46 H391 Z M410 15 H411 V16 H410 Z M461 60 H462 V61 H461 Z M478 27 H479 V28 H478 Z M481 30 H482 V31 H481 Z" fill="#014099" fill-opacity="0.0470588" fill-rule="evenodd"/>
  <path d="M36 10 H37 V11 H36 Z M57 43 H58 V44 H57 Z M67 12 H68 V13 H67 Z M89 9 H90 V10 H89 Z M143 9 H144 V10 H143 Z M206 37 H207 V38 H206 Z M207 56 H208 V57 H207 Z M220 28 H221 V29 H220 Z M244 25 H245 V26 H244 Z M257 58 H258 V59 H257 Z M278 42 H279 V43 H278 Z M280 29 H281 V30 H280 Z M288 60 H289 V61 H288 Z M290 54 H291 V55 H290 Z M369 52 H370 V53 H369 Z M399 57 H400 V58 H399 Z M415 58 H416 V59 H415 Z" fill="#014099" fill-opacity="0.988235" fill-rule="evenodd"/>
  <path d="M6 10 H7 V11 H6 Z M23 30 H24 V31 H23 Z M68 41 H69 V42 H68 Z M219 17 H220 V18 H219 Z M259 58 H260 V59 H259 Z M267 28 H268 V29 H267 Z M268 46 H269 V47 H268 Z M294 52 H295 V53 H294 Z M299 39 H300 V40 H299 Z M310 30 H311 V29 H312 V30 H311 V31 H310 Z M361 57 H362 V58 H361 Z M365 33 H366 V34 H365 Z M375 28 H376 V29 H375 Z M387 58 H388 V59 H387 Z M389 28 H390 V29 H389 Z M411 13 H412 V14 H411 Z" fill="#014099" fill-opacity="0.0627451" fill-rule="evenodd"/>
  <path d="M7 10 H8 V11 H7 Z M23 13 H24 V14 H23 Z M35 30 H36 V31 H35 Z M56 44 H57 V45 H56 Z M99 23 H100 V25 H99 Z M146 16 H147 V17 H146 Z M252 27 H253 V28 H252 Z M278 60 H279 V61 H278 Z M312 58 H313 V59 H312 Z M315 26 H316 V27 H315 Z M337 53 H338 V54 H337 Z M378 22 H379 V23 H378 Z M378 48 H379 V49 H378 Z M416 57 H417 V58 H416 Z M443 56 H444 V57 H443 Z M445 35 H446 V36 H445 Z" fill="#014099" fill-opacity="0.121569" fill-rule="evenodd"/>
  <path d="M10 10 H11 V11 H10 Z M59 51 H60 V52 H59 Z M83 56 H84 V57 H83 Z M83 60 H84 V61 H83 Z M94 13 H95 V14 H94 Z M98 22 H99 V23 H98 Z M278 26 H279 V27 H278 Z M326 60 H327 V61 H326 Z M334 55 H335 V56 H334 Z M369 59 H370 V60 H369 Z M410 11 H411 V13 H410 Z M431 36 H432 V37 H431 Z M439 23 H440 V24 H439 Z M454 53 H455 V54 H454 Z M456 49 H457 V50 H456 Z M489 23 H490 V24 H489 Z" fill="#014099" fill-opacity="0.937255" fill-rule="evenodd"/>
  <path d="M23 29 H24 V30 H23 Z M52 10 H53 V11 H52 Z M146 15 H147 V16 H146 Z M146 51 H147 V52 H146 Z M252 24 H253 V25 H252 Z M268 45 H269 V46 H268 Z M280 46 H281 V47 H280 Z M288 22 H289 V23 H288 Z M305 40 H306 V41 H305 Z M331 32 H332 V33 H331 Z M361 60 H362 V61 H361 Z M378 35 H379 V36 H378 Z M380 36 H381 V37 H380 Z M432 42 H433 V43 H432 Z M478 33 H479 V34 H478 Z M488 22 H489 V23 H488 Z M490 22 H491 V23 H490 Z" fill="#014099" fill-opacity="0.129412" fill-rule="evenodd"/>
  <path d="M22 29 H23 V30 H22 Z M26 57 H27 V58 H26 Z M34 35 H35 V36 H34 Z M96 49 H97 V50 H96 Z M98 38 H99 V39 H98 Z M110 70 H111 V71 H110 Z M147 15 H148 V16 H147 Z M239 28 H240 V29 H239 Z M251 28 H252 V29 H251 Z M294 53 H295 V54 H294 Z M300 36 H301 V37 H300 Z M312 57 H313 V58 H312 Z M315 41 H316 V42 H315 Z M326 23 H327 V24 H326 Z M431 42 H432 V43 H431 Z M477 32 H478 V33 H477 Z M483 25 H484 V26 H483 Z" fill="#014099" fill-opacity="0.87451" fill-rule="evenodd"/>
  <path d="M23 35 H24 V36 H23 Z M41 28 H42 V39 H41 Z M98 40 H99 V41 H98 Z M110 7 H111 V8 H110 Z M141 9 H142 V10 H141 Z M353 7 H354 V8 H353 Z" fill="#014099" fill-opacity="0.694118" fill-rule="evenodd"/>
  <path d="M23 12 H24 V13 H23 Z M104 10 H105 V11 H104 Z M142 10 H143 V11 H142 Z M162 10 H163 V11 H162 Z M207 54 H208 V55 H207 Z M216 12 H217 V13 H216 Z M231 15 H232 V16 H231 Z M247 23 H248 V24 H247 Z M253 34 H254 V35 H253 Z M269 50 H270 V51 H269 Z M299 54 H300 V55 H299 Z M373 23 H374 V24 H373 Z M382 22 H383 V23 H382 Z M410 8 H411 V9 H410 Z M434 52 H435 V53 H434 Z M478 32 H479 V33 H478 Z" fill="#014099" fill-opacity="0.0980392" fill-rule="evenodd"/>
  <path d="M37 39 H38 V40 H37 Z M102 11 H103 V12 H102 Z M111 68 H112 V69 H111 Z M139 9 H140 V10 H139 Z M165 60 H166 V61 H165 Z M232 26 H233 V27 H232 Z M235 60 H236 V61 H235 Z M292 40 H293 V41 H292 Z M301 35 H302 V36 H301 Z M306 51 H307 V52 H306 Z M324 22 H325 V23 H324 Z M329 60 H330 V61 H329 Z M340 25 H341 V26 H340 Z M356 22 H357 V23 H356 Z M365 32 H366 V33 H365 Z M377 57 H378 V58 H377 Z" fill="#014099" fill-opacity="0.0117647" fill-rule="evenodd"/>
  <path d="M12 51 H13 V52 H12 Z M22 31 H23 V32 H22 Z M98 23 H99 V25 H98 Z M209 57 H210 V58 H209 Z M220 17 H221 V18 H220 Z M224 9 H225 V10 H224 Z M226 34 H227 V35 H226 Z M231 25 H232 V26 H231 Z M258 24 H259 V25 H258 Z M269 44 H270 V45 H269 Z M281 28 H282 V29 H281 Z M328 23 H329 V24 H328 Z M357 57 H358 V58 H357 Z M431 43 H432 V44 H431 Z M489 32 H490 V33 H489 Z" fill="#014099" fill-opacity="0.917647" fill-rule="evenodd"/>
  <path d="M11 16 H12 V17 H11 Z M11 50 H12 V51 H11 Z M23 51 H24 V52 H23 Z M59 53 H60 V54 H59 Z M68 42 H69 V43 H68 Z M71 10 H72 V11 H71 Z M243 24 H244 V25 H243 Z M252 23 H253 V24 H252 Z M261 22 H262 V23 H261 Z M270 34 H271 V35 H270 Z M288 40 H289 V41 H288 Z M290 34 H291 V35 H290 Z M423 54 H424 V55 H423 Z M478 53 H479 V54 H478 Z M488 32 H489 V33 H488 Z M489 22 H490 V23 H489 Z" fill="#014099" fill-opacity="0.14902" fill-rule="evenodd"/>
  <path d="M12 49 H13 V50 H12 Z M22 50 H23 V51 H22 Z M35 31 H36 V32 H35 Z M56 12 H57 V13 H56 Z M86 55 H87 V56 H86 Z M94 44 H95 V45 H94 Z M159 10 H160 V11 H159 Z M206 54 H207 V55 H206 Z M217 38 H218 V39 H217 Z M218 13 H219 V14 H218 Z M237 27 H238 V28 H237 Z M252 56 H253 V57 H252 Z M294 25 H295 V26 H294 Z M434 60 H435 V61 H434 Z M477 25 H478 V26 H477 Z M481 59 H482 V60 H481 Z" fill="#014099" fill-opacity="0.886275" fill-rule="evenodd"/>
  <path d="M40 16 H41 V17 H40 Z M99 21 H100 V22 H99 Z M108 71 H109 V72 H108 Z M116 56 H117 V57 H116 Z M118 70 H119 V71 H118 Z M209 10 H210 V11 H209 Z M211 10 H212 V11 H211 Z M239 29 H240 V30 H239 Z M282 28 H283 V27 H284 V28 H283 V29 H282 Z M326 53 H327 V54 H326 Z M328 22 H329 V23 H328 Z M376 57 H377 V58 H376 Z M478 25 H479 V26 H478 Z M478 52 H479 V53 H478 Z M499 29 H500 V30 H499 Z" fill="#014099" fill-opacity="0.137255" fill-rule="evenodd"/>
  <path d="M68 59 H69 V60 H68 Z M69 49 H70 V50 H69 Z M94 45 H95 V46 H94 Z M95 21 H96 V22 H95 Z M95 38 H96 V39 H95 Z M98 20 H99 V21 H98 Z M117 57 H118 V58 H117 Z M193 57 H194 V58 H193 Z M195 11 H196 V12 H195 Z M257 31 H258 V32 H257 Z M330 58 H331 V59 H330 Z M407 24 H408 V25 H407 Z M442 58 H443 V59 H442 Z M453 29 H454 V30 H453 Z M467 56 H468 V57 H467 Z M495 25 H496 V26 H495 Z" fill="#014099" fill-opacity="0.980392" fill-rule="evenodd"/>
  <path d="M115 71 H116 V72 H115 Z M117 55 H118 V56 H117 Z M217 12 H218 V13 H217 Z M229 13 H230 V14 H229 Z M325 23 H326 V24 H325 Z M336 53 H337 V54 H336 Z M343 57 H344 V58 H343 Z M374 45 H375 V46 H374 Z M376 26 H377 V27 H376 Z M388 56 H389 V57 H388 Z M401 25 H402 V26 H401 Z M409 15 H410 V16 H409 Z M422 51 H423 V52 H422 Z M432 32 H433 V33 H432 Z M465 28 H466 V29 H465 Z M465 57 H466 V58 H465 Z" fill="#014099" fill-opacity="0.796078" fill-rule="evenodd"/>
  <path d="M58 51 H59 V52 H58 Z M90 51 H91 V52 H90 Z M99 20 H100 V21 H99 Z M146 14 H147 V15 H146 Z M217 39 H218 V40 H217 Z M218 30 H219 V31 H218 Z M229 32 H230 V33 H229 Z M287 22 H288 V23 H287 Z M327 22 H328 V23 H327 Z M379 22 H381 V23 H379 Z M402 24 H403 V25 H402 Z M433 49 H434 V50 H433 Z M439 22 H440 V23 H439 Z M443 29 H444 V30 H443 Z M444 31 H445 V32 H444 Z" fill="#014099" fill-opacity="0.145098" fill-rule="evenodd"/>
  <path d="M71 52 H72 V53 H71 Z M95 39 H96 V40 H95 Z M256 26 H257 V27 H256 Z M280 37 H281 V38 H280 Z M295 26 H296 V27 H295 Z M295 53 H296 V54 H295 Z M322 26 H323 V27 H322 Z M334 52 H335 V53 H334 Z M341 58 H342 V59 H341 Z M366 55 H367 V56 H366 Z M431 25 H432 V26 H431 Z M431 45 H432 V46 H431 Z M432 31 H433 V32 H432 Z M446 52 H447 V53 H446 Z M455 32 H456 V33 H455 Z M477 31 H478 V32 H477 Z" fill="#014099" fill-opacity="0.992157" fill-rule="evenodd"/>
  <path d="M71 9 H72 V10 H71 Z M86 8 H87 V9 H86 Z M88 58 H89 V59 H88 Z M189 58 H190 V59 H189 Z M255 27 H256 V28 H255 Z M279 46 H280 V47 H279 Z M318 49 H319 V50 H318 Z M319 25 H320 V26 H319 Z M332 53 H333 V54 H332 Z M335 51 H336 V52 H335 Z M382 38 H383 V39 H382 Z M425 55 H426 V56 H425 Z M438 58 H439 V59 H438 Z M479 28 H480 V29 H479 Z M499 33 H500 V34 H499 Z" fill="#014099" fill-opacity="0.94902" fill-rule="evenodd"/>
  <path d="M25 35 H31 V36 H25 Z M117 48 H118 V49 H117 Z M271 53 H272 V54 H271 Z M308 53 H309 V54 H308 Z M344 10 H345 V11 H344 Z M366 32 H367 V33 H366 Z M384 29 H385 V30 H384 Z M400 25 H401 V26 H400 Z M422 33 H423 V34 H422 Z M481 26 H482 V27 H481 Z" fill="#014099" fill-opacity="0.647059" fill-rule="evenodd"/>
  <path d="M31 35 H32 V36 H31 Z M37 37 H38 V38 H37 Z M67 16 H68 V17 H67 Z M69 48 H70 V49 H69 Z M79 61 H80 V62 H79 Z M109 72 H110 V73 H109 Z M117 17 H118 V18 H117 Z M117 45 H118 V46 H117 Z M127 55 H128 V56 H127 Z M206 51 H207 V52 H206 Z M208 35 H209 V36 H208 Z M263 23 H264 V24 H263 Z M290 60 H291 V61 H290 Z M405 24 H406 V25 H405 Z M432 24 H433 V25 H432 Z" fill="#014099" fill-opacity="0.643137" fill-rule="evenodd"/>
  <path d="M41 25 H42 V26 H41 Z M56 17 H57 V18 H56 Z M128 16 H129 V17 H128 Z M128 46 H129 V47 H128 Z M236 60 H237 V61 H236 Z M305 43 H306 V44 H305 Z M317 46 H318 V47 H317 Z M341 57 H342 V58 H341 Z M348 24 H349 V25 H348 Z M382 52 H383 V53 H382 Z M399 56 H400 V57 H399 Z M422 52 H423 V53 H422 Z M446 43 H447 V45 H446 Z M458 42 H459 V43 H458 Z" fill="#014099" fill-opacity="0.360784" fill-rule="evenodd"/>
  <path d="M12 52 H13 V53 H12 Z M38 38 H39 V39 H38 Z M44 18 H45 V19 H44 Z M58 48 H59 V49 H58 Z M93 54 H94 V55 H93 Z M97 45 H98 V46 H97 Z M127 52 H128 V53 H127 Z M309 33 H310 V34 H309 Z M317 26 H318 V27 H317 Z M319 60 H320 V61 H319 Z M352 16 H353 V17 H352 Z M368 50 H369 V51 H368 Z M388 29 H389 V30 H388 Z M400 56 H401 V57 H400 Z M450 57 H451 V58 H450 Z" fill="#014099" fill-opacity="0.960784" fill-rule="evenodd"/>
  <path d="M36 37 H37 V38 H36 Z M56 45 H57 V46 H56 Z M116 53 H117 V54 H116 Z M139 59 H140 V60 H139 Z M250 22 H251 V23 H250 Z M252 22 H253 V23 H252 Z M279 41 H280 V42 H279 Z M312 28 H313 V29 H312 Z M339 58 H340 V59 H339 Z M354 16 H355 V17 H354 Z M364 48 H365 V49 H364 Z M419 42 H420 V43 H419 Z M436 27 H437 V28 H436 Z M441 57 H442 V58 H441 Z M472 23 H473 V24 H472 Z" fill="#014099" fill-opacity="0.027451" fill-rule="evenodd"/>
  <path d="M8 56 H9 V57 H8 Z M44 6 H45 V7 H44 Z M57 49 H58 V50 H57 Z M129 12 H130 V13 H129 Z M135 8 H136 V9 H135 Z M159 55 H160 V56 H159 Z M163 10 H164 V11 H163 Z M190 10 H191 V11 H190 Z M269 36 H270 V37 H269 Z M316 39 H317 V40 H316 Z M376 27 H377 V28 H376 Z M421 51 H422 V52 H421 Z M485 57 H486 V58 H485 Z M500 32 H501 V33 H500 Z" fill="#014099" fill-opacity="0.0352941" fill-rule="evenodd"/>
  <path d="M95 22 H96 V23 H95 Z M119 68 H120 V69 H119 Z M220 37 H221 V38 H220 Z M231 19 H232 V20 H231 Z M253 57 H254 V58 H253 Z M271 34 H272 V35 H271 Z M285 39 H286 V40 H285 Z M291 59 H292 V60 H291 Z M314 58 H315 V59 H314 Z M316 59 H317 V60 H316 Z M335 26 H336 V27 H335 Z M355 55 H356 V56 H355 Z M402 7 H403 V8 H402 Z M457 45 H458 V46 H457 Z" fill="#014099" fill-opacity="0.976471" fill-rule="evenodd"/>
  <path d="M25 31 H30 V32 H25 Z M31 31 H32 V32 H31 Z M32 10 H33 V11 H32 Z M214 39 H215 V40 H214 Z M222 37 H223 V38 H222 Z M241 53 H242 V54 H241 Z M281 40 H282 V41 H281 Z M335 25 H336 V26 H335 Z M343 25 H344 V26 H343 Z M375 33 H376 V34 H375 Z" fill="#014099" fill-opacity="0.470588" fill-rule="evenodd"/>
  <path d="M44 19 H45 V20 H44 Z M94 19 H95 V20 H94 Z M101 11 H102 V12 H101 Z M114 10 H115 V11 H114 Z M231 28 H232 V29 H231 Z M232 21 H233 V23 H232 Z M237 28 H238 V29 H237 Z M264 33 H265 V32 H266 V33 H265 V34 H264 Z M300 32 H301 V33 H300 Z M305 44 H306 V45 H305 Z M399 13 H400 V14 H399 Z M400 34 H401 V35 H400 Z" fill="#014099" fill-opacity="0.352941" fill-rule="evenodd"/>
  <path d="M80 55 H81 V56 H80 Z M95 53 H96 V54 H95 Z M133 10 H134 V11 H133 Z M165 59 H166 V60 H165 Z M214 11 H215 V12 H214 Z M219 27 H220 V28 H219 Z M273 29 H274 V30 H273 Z M316 38 H317 V39 H316 Z M386 39 H387 V40 H386 Z M399 14 H400 V15 H399 Z M423 30 H424 V31 H423 Z M427 26 H428 V27 H427 Z M444 61 H445 V62 H444 Z M465 29 H466 V30 H465 Z" fill="#014099" fill-opacity="0.0392157" fill-rule="evenodd"/>
  <path d="M38 25 H39 V26 H38 Z M192 10 H193 V11 H192 Z M297 56 H298 V57 H297 Z M306 50 H307 V51 H306 Z M316 42 H317 V43 H316 Z M326 61 H327 V62 H326 Z M411 25 H412 V26 H411 Z M411 51 H412 V53 H411 Z M438 57 H439 V58 H438 Z M445 52 H446 V53 H445 Z M458 45 H459 V46 H458 Z M463 25 H464 V26 H463 Z M478 55 H479 V56 H478 Z" fill="#014099" fill-opacity="0.2" fill-rule="evenodd"/>
  <path d="M91 56 H92 V57 H91 Z M95 37 H96 V38 H95 Z M117 12 H118 V13 H117 Z M160 57 H161 V58 H160 Z M238 26 H239 V27 H238 Z M259 32 H260 V33 H259 Z M298 38 H299 V39 H298 Z M307 50 H308 V51 H307 Z M369 27 H370 V28 H369 Z M369 41 H370 V42 H369 Z M383 59 H384 V60 H383 Z M388 42 H389 V43 H388 Z M445 31 H446 V32 H445 Z M462 59 H463 V60 H462 Z" fill="#014099" fill-opacity="0.972549" fill-rule="evenodd"/>
  <path d="M5 57 H6 V58 H5 Z M56 37 H57 V39 H56 Z M114 72 H115 V73 H114 Z M128 45 H129 V46 H128 Z M140 60 H141 V61 H140 Z M189 57 H190 V58 H189 Z M256 25 H257 V26 H256 Z M295 25 H296 V26 H295 Z M373 45 H374 V46 H373 Z M397 25 H398 V26 H397 Z M437 61 H438 V62 H437 Z M446 42 H447 V43 H446 Z M453 28 H454 V29 H453 Z" fill="#014099" fill-opacity="0.368627" fill-rule="evenodd"/>
  <path d="M110 9 H111 V10 H110 Z M213 57 H214 V58 H213 Z M241 33 H242 V34 H241 Z M252 35 H253 V36 H252 Z M333 32 H334 V33 H333 Z M375 57 H376 V58 H375 Z M376 61 H378 V62 H376 Z M400 54 H401 V55 H400 Z M407 6 H408 V7 H407 Z M434 53 H435 V54 H434 Z M446 47 H447 V48 H446 Z M504 60 H505 V61 H504 Z" fill="#014099" fill-opacity="0.431373" fill-rule="evenodd"/>
  <path d="M69 11 H70 V12 H69 Z M207 11 H208 V12 H207 Z M254 33 H255 V34 H254 Z M266 31 H267 V32 H266 Z M290 40 H291 V41 H290 Z M318 61 H319 V62 H318 Z M374 46 H375 V47 H374 Z M395 27 H396 V28 H395 Z M408 6 H409 V7 H408 Z M410 22 H411 V23 H410 Z M442 22 H443 V23 H442 Z M462 27 H463 V28 H462 Z M486 30 H487 V31 H486 Z" fill="#014099" fill-opacity="0.0823529" fill-rule="evenodd"/>
  <path d="M22 30 H23 V31 H22 Z M93 47 H94 V48 H93 Z M94 14 H95 V15 H94 Z M164 7 H165 V8 H164 Z M251 29 H252 V30 H251 Z M251 37 H252 V38 H251 Z M299 38 H300 V39 H299 Z M316 32 H317 V33 H316 Z M321 24 H322 V25 H321 Z M327 28 H328 V29 H327 Z M332 57 H333 V58 H332 Z M421 36 H422 V37 H421 Z M443 57 H444 V58 H443 Z" fill="#014099" fill-opacity="0.835294" fill-rule="evenodd"/>
  <path d="M31 10 H32 V11 H31 Z M57 47 H58 V48 H57 Z M81 61 H82 V62 H81 Z M106 9 H107 V10 H106 Z M220 7 H221 V8 H220 Z M253 29 H254 V30 H253 Z M326 28 H327 V29 H326 Z M337 52 H338 V53 H337 Z M376 34 H377 V35 H376 Z M439 61 H440 V62 H439 Z M445 33 H446 V34 H445 Z M462 60 H463 V61 H462 Z M489 35 H490 V36 H489 Z" fill="#014099" fill-opacity="0.443137" fill-rule="evenodd"/>
  <path d="M70 60 H71 V61 H70 Z M72 9 H73 V10 H72 Z M252 31 H253 V32 H252 Z M254 28 H255 V29 H254 Z M307 36 H308 V37 H307 Z M311 30 H312 V31 H311 Z M336 51 H337 V52 H336 Z M344 11 H345 V12 H344 Z M365 48 H366 V49 H365 Z M377 58 H378 V59 H377 Z M390 53 H391 V54 H390 Z M396 26 H397 V27 H396 Z M420 43 H421 V44 H420 Z" fill="#014099" fill-opacity="0.780392" fill-rule="evenodd"/>
  <path d="M26 10 H27 V11 H26 Z M30 10 H31 V11 H30 Z M112 68 H113 V69 H112 Z M216 33 H217 V34 H216 Z M239 25 H240 V26 H239 Z M249 23 H250 V24 H249 Z M256 57 H257 V58 H256 Z M322 61 H323 V62 H322 Z M330 53 H331 V54 H330 Z M369 42 H370 V43 H369 Z M400 31 H401 V32 H400 Z M463 57 H464 V58 H463 Z M489 53 H490 V54 H489 Z" fill="#014099" fill-opacity="0.423529" fill-rule="evenodd"/>
  <path d="M54 10 H55 V11 H54 Z M76 61 H77 V62 H76 Z M93 12 H94 V13 H93 Z M117 15 H118 V16 H117 Z M117 46 H118 V47 H117 Z M191 57 H192 V58 H191 Z M211 57 H212 V58 H211 Z M279 34 H280 V35 H279 Z M331 58 H332 V59 H331 Z M375 27 H376 V28 H375 Z M389 55 H390 V56 H389 Z M421 49 H422 V50 H421 Z M455 31 H456 V32 H455 Z" fill="#014099" fill-opacity="0.654902" fill-rule="evenodd"/>
  <path d="M38 39 H39 V40 H38 Z M57 45 H58 V46 H57 Z M84 60 H85 V61 H84 Z M92 49 H93 V50 H92 Z M99 14 H100 V15 H99 Z M115 10 H116 V11 H115 Z M218 38 H219 V39 H218 Z M269 39 H270 V40 H269 Z M279 25 H280 V26 H279 Z M279 45 H280 V46 H279 Z M315 59 H316 V60 H315 Z M317 30 H318 V31 H317 Z M349 17 H350 V18 H349 Z" fill="#014099" fill-opacity="0.752941" fill-rule="evenodd"/>
  <path d="M26 56 H27 V57 H26 Z M79 55 H80 V56 H79 Z M99 37 H100 V38 H99 Z M124 64 H125 V65 H124 Z M128 53 H129 V54 H128 Z M217 13 H218 V14 H217 Z M252 25 H253 V26 H252 Z M252 51 H253 V52 H252 Z M252 53 H253 V54 H252 Z M271 32 H272 V33 H271 Z M365 34 H366 V35 H365 Z M365 56 H366 V57 H365 Z M388 57 H389 V58 H388 Z" fill="#014099" fill-opacity="0.109804" fill-rule="evenodd"/>
  <path d="M41 19 H42 V20 H41 Z M158 17 H159 V18 H158 Z M158 50 H159 V51 H158 Z M271 54 H272 V55 H271 Z M340 26 H341 V27 H340 Z M367 40 H368 V41 H367 Z M371 44 H372 V45 H371 Z M391 52 H392 V53 H391 Z M434 61 H435 V62 H434 Z M458 37 H459 V38 H458 Z M478 24 H479 V25 H478 Z M488 56 H489 V57 H488 Z M498 27 H499 V28 H498 Z" fill="#014099" fill-opacity="0.152941" fill-rule="evenodd"/>
  <path d="M70 61 H71 V62 H70 Z M98 46 H99 V47 H98 Z M274 28 H275 V29 H274 Z M291 40 H292 V41 H291 Z M306 36 H307 V37 H306 Z M316 37 H317 V38 H316 Z M317 32 H318 V33 H317 Z M335 31 H336 V32 H335 Z M343 29 H344 V30 H343 Z M381 27 H382 V28 H381 Z M386 34 H387 V35 H386 Z M478 22 H479 V23 H478 Z M479 31 H480 V32 H479 Z" fill="#014099" fill-opacity="0.0509804" fill-rule="evenodd"/>
  <path d="M49 6 H50 V7 H49 Z M96 51 H97 V52 H96 Z M115 72 H116 V73 H115 Z M226 9 H227 V10 H226 Z M252 37 H253 V38 H252 Z M300 31 H301 V32 H300 Z M316 41 H317 V42 H316 Z M325 22 H326 V23 H325 Z M354 7 H355 V8 H354 Z M376 47 H377 V48 H376 Z M389 34 H390 V35 H389 Z M432 41 H433 V42 H432 Z" fill="#014099" fill-opacity="0.0784314" fill-rule="evenodd"/>
  <path d="M11 13 H12 V14 H11 Z M49 8 H50 V9 H49 Z M82 61 H83 V62 H82 Z M94 20 H95 V21 H94 Z M99 18 H100 V19 H99 Z M105 6 H106 V7 H105 Z M195 51 H196 V52 H195 Z M275 58 H276 V59 H275 Z M325 61 H326 V62 H325 Z M386 33 H387 V34 H386 Z M500 35 H501 V37 H500 Z" fill="#014099" fill-opacity="0.305882" fill-rule="evenodd"/>
  <path d="M83 55 H84 V56 H83 Z M106 6 H107 V7 H106 Z M116 57 H117 V58 H116 Z M140 6 H141 V7 H140 Z M212 10 H213 V11 H212 Z M319 49 H320 V50 H319 Z M381 56 H382 V57 H381 Z M411 11 H412 V12 H411 Z M422 32 H423 V33 H422 Z M432 36 H433 V37 H432 Z M450 58 H451 V59 H450 Z M501 56 H502 V57 H501 Z" fill="#014099" fill-opacity="0.211765" fill-rule="evenodd"/>
  <path d="M23 37 H24 V38 H23 Z M39 42 H40 V43 H39 Z M85 7 H86 V8 H85 Z M88 10 H89 V11 H88 Z M217 6 H218 V7 H217 Z M236 27 H237 V28 H236 Z M252 36 H253 V37 H252 Z M285 22 H286 V23 H285 Z M289 22 H290 V23 H289 Z M377 22 H378 V23 H377 Z M441 27 H442 V28 H441 Z M491 22 H492 V23 H491 Z" fill="#014099" fill-opacity="0.0901961" fill-rule="evenodd"/>
  <path d="M78 55 H79 V56 H78 Z M94 23 H95 V24 H94 Z M99 19 H100 V20 H99 Z M209 56 H210 V57 H209 Z M258 57 H259 V58 H258 Z M268 43 H269 V44 H268 Z M333 57 H334 V58 H333 Z M336 26 H337 V27 H336 Z M357 56 H358 V57 H357 Z M402 6 H403 V7 H402 Z M426 57 H427 V58 H426 Z M485 58 H486 V59 H485 Z" fill="#014099" fill-opacity="0.196078" fill-rule="evenodd"/>
  <path d="M11 53 H12 V54 H11 Z M49 7 H50 V8 H49 Z M53 10 H54 V11 H53 Z M56 41 H57 V42 H56 Z M64 58 H65 V59 H64 Z M91 57 H92 V58 H91 Z M216 39 H217 V40 H216 Z M219 28 H220 V29 H219 Z M228 33 H229 V34 H228 Z M382 53 H383 V54 H382 Z M429 25 H430 V26 H429 Z M458 39 H459 V40 H458 Z" fill="#014099" fill-opacity="0.27451" fill-rule="evenodd"/>
  <path d="M5 8 H6 V9 H5 Z M95 51 H96 V52 H95 Z M157 51 H158 V52 H157 Z M158 11 H159 V12 H158 Z M164 59 H165 V60 H164 Z M211 9 H212 V10 H211 Z M230 15 H231 V16 H230 Z M278 40 H279 V41 H278 Z M287 39 H288 V40 H287 Z M381 57 H382 V58 H381 Z M440 23 H441 V24 H440 Z M477 24 H478 V25 H477 Z" fill="#014099" fill-opacity="0.921569" fill-rule="evenodd"/>
  <path d="M12 50 H13 V51 H12 Z M22 51 H23 V52 H22 Z M98 36 H99 V37 H98 Z M146 11 H147 V12 H146 Z M288 23 H289 V24 H288 Z M296 56 H297 V57 H296 Z M366 56 H367 V57 H366 Z M368 28 H369 V29 H368 Z M409 8 H410 V9 H409 Z M477 23 H478 V24 H477 Z M488 23 H489 V24 H488 Z M490 23 H491 V24 H490 Z" fill="#014099" fill-opacity="0.901961" fill-rule="evenodd"/>
  <path d="M7 9 H8 V10 H7 Z M220 27 H221 V28 H220 Z M265 31 H266 V32 H265 Z M269 41 H270 V42 H269 Z M286 23 H287 V24 H286 Z M371 43 H372 V44 H371 Z M431 59 H432 V60 H431 Z M438 23 H439 V24 H438 Z M444 56 H445 V57 H444 Z M448 25 H449 V26 H448 Z M477 26 H478 V27 H477 Z M500 56 H501 V57 H500 Z" fill="#014099" fill-opacity="0.894118" fill-rule="evenodd"/>
  <path d="M134 9 H135 V10 H134 Z M230 14 H231 V15 H230 Z M285 36 H286 V37 H285 Z M345 32 H346 V33 H345 Z M349 24 H350 V25 H349 Z M366 37 H367 V38 H366 Z M380 26 H381 V27 H380 Z M391 50 H392 V51 H391 Z M414 57 H415 V58 H414 Z M433 30 H434 V31 H433 Z M452 56 H453 V57 H452 Z M482 29 H483 V30 H482 Z" fill="#014099" fill-opacity="0.498039" fill-rule="evenodd"/>
  <path d="M22 36 H23 V37 H22 Z M90 57 H91 V58 H90 Z M126 58 H127 V59 H126 Z M142 9 H143 V10 H142 Z M162 9 H163 V10 H162 Z M216 11 H217 V12 H216 Z M266 27 H267 V28 H266 Z M351 24 H352 V25 H351 Z M381 26 H382 V27 H381 Z M382 23 H383 V24 H382 Z M431 38 H432 V39 H431 Z M468 25 H469 V26 H468 Z" fill="#014099" fill-opacity="0.839216" fill-rule="evenodd"/>
  <path d="M61 55 H62 V56 H61 Z M96 50 H97 V51 H96 Z M225 9 H226 V10 H225 Z M322 52 H323 V53 H322 Z M351 17 H352 V18 H351 Z M379 48 H380 V49 H379 Z M381 37 H382 V38 H381 Z M397 28 H398 V29 H397 Z M399 12 H400 V13 H399 Z M420 45 H421 V46 H420 Z M428 58 H429 V59 H428 Z M480 60 H481 V61 H480 Z" fill="#014099" fill-opacity="0.576471" fill-rule="evenodd"/>
  <path d="M34 36 H35 V37 H34 Z M37 28 H38 V29 H37 Z M82 55 H83 V56 H82 Z M99 25 H100 V26 H99 Z M146 50 H147 V51 H146 Z M210 10 H211 V11 H210 Z M262 22 H263 V23 H262 Z M289 40 H290 V41 H289 Z M326 22 H327 V23 H326 Z M327 53 H328 V54 H327 Z M426 27 H427 V28 H426 Z M458 46 H459 V47 H458 Z" fill="#014099" fill-opacity="0.117647" fill-rule="evenodd"/>
  <path d="M9 56 H10 V57 H9 Z M44 11 H45 V12 H44 Z M195 52 H196 V53 H195 Z M219 16 H220 V17 H219 Z M220 38 H221 V39 H220 Z M299 50 H300 V51 H299 Z M305 42 H306 V43 H305 Z M361 59 H362 V60 H361 Z M368 41 H369 V42 H368 Z M400 35 H401 V36 H400 Z M400 50 H401 V51 H400 Z M412 56 H413 V57 H412 Z" fill="#014099" fill-opacity="0.333333" fill-rule="evenodd"/>
  <path d="M38 27 H39 V28 H38 Z M41 40 H42 V41 H41 Z M68 11 H69 V12 H68 Z M113 72 H114 V73 H113 Z M206 38 H207 V39 H206 Z M300 37 H301 V38 H300 Z M312 29 H313 V30 H312 Z M384 59 H385 V60 H384 Z M386 32 H387 V33 H386 Z M408 16 H409 V17 H408 Z M432 48 H433 V49 H432 Z M445 32 H446 V33 H445 Z" fill="#014099" fill-opacity="0.729412" fill-rule="evenodd"/>
  <path d="M57 48 H58 V49 H57 Z M68 43 H69 V44 H68 Z M94 22 H95 V23 H94 Z M94 37 H95 V38 H94 Z M116 58 H117 V59 H116 Z M128 51 H129 V52 H128 Z M285 52 H286 V53 H285 Z M330 31 H331 V32 H330 Z M334 56 H335 V55 H336 V56 H335 V57 H334 Z M341 25 H342 V26 H341 Z M432 44 H433 V45 H432 Z" fill="#014099" fill-opacity="0.235294" fill-rule="evenodd"/>
  <path d="M22 52 H23 V53 H22 Z M228 32 H229 V33 H228 Z M287 23 H288 V24 H287 Z M315 42 H316 V43 H315 Z M327 23 H328 V24 H327 Z M376 58 H377 V59 H376 Z M379 23 H380 V24 H379 Z M390 52 H391 V53 H390 Z M433 24 H434 V25 H433 Z M433 52 H434 V53 H433 Z M456 34 H457 V35 H456 Z M469 25 H470 V26 H469 Z" fill="#014099" fill-opacity="0.933333" fill-rule="evenodd"/>
  <path d="M29 60 H30 V61 H29 Z M207 55 H208 V56 H207 Z M208 56 H209 V57 H208 Z M213 60 H214 V61 H213 Z M348 17 H349 V18 H348 Z M365 51 H366 V52 H365 Z M396 60 H397 V61 H396 Z M403 6 H404 V7 H403 Z M410 14 H411 V15 H410 Z M467 54 H468 V55 H467 Z M471 24 H472 V25 H471 Z" fill="#014099" fill-opacity="0.556863" fill-rule="evenodd"/>
  <path d="M6 9 H7 V10 H6 Z M106 7 H107 V8 H106 Z M110 8 H111 V9 H110 Z M125 61 H126 V62 H125 Z M140 7 H141 V8 H140 Z M207 35 H208 V36 H207 Z M218 7 H219 V8 H218 Z M241 55 H242 V56 H241 Z M295 57 H296 V58 H295 Z M427 27 H428 V28 H427 Z M481 29 H482 V30 H481 Z" fill="#014099" fill-opacity="0.764706" fill-rule="evenodd"/>
  <path d="M33 36 H34 V37 H33 Z M81 55 H82 V56 H81 Z M165 8 H166 V9 H165 Z M165 58 H166 V59 H165 Z M295 58 H296 V59 H295 Z M299 29 H300 V30 H299 Z M305 39 H306 V40 H305 Z M316 40 H317 V41 H316 Z M340 28 H341 V29 H340 Z M365 57 H366 V58 H365 Z M436 22 H437 V23 H436 Z" fill="#014099" fill-opacity="0.0431373" fill-rule="evenodd"/>
  <path d="M72 10 H73 V11 H72 Z M93 44 H94 V45 H93 Z M115 62 H116 V63 H115 Z M116 55 H117 V56 H116 Z M188 57 H189 V58 H188 Z M236 26 H237 V27 H236 Z M395 26 H396 V27 H395 Z M427 58 H428 V59 H427 Z M432 40 H433 V41 H432 Z M435 54 H436 V55 H435 Z M462 26 H463 V27 H462 Z" fill="#014099" fill-opacity="0.0705882" fill-rule="evenodd"/>
  <path d="M90 10 H91 V11 H90 Z M195 13 H196 V14 H195 Z M220 21 H221 V22 H220 Z M269 49 H270 V50 H269 Z M318 48 H319 V49 H318 Z M369 26 H370 V27 H369 Z M377 47 H378 V48 H377 Z M440 61 H441 V62 H440 Z M446 46 H447 V47 H446 Z M458 41 H459 V42 H458 Z M481 60 H482 V61 H481 Z" fill="#014099" fill-opacity="0.403922" fill-rule="evenodd"/>
  <path d="M208 10 H209 V11 H208 Z M214 34 H215 V35 H214 Z M309 55 H310 V56 H309 Z M316 35 H317 V36 H316 Z M370 52 H371 V53 H370 Z M380 61 H381 V62 H380 Z M407 23 H408 V24 H407 Z M411 23 H412 V24 H411 Z M416 60 H417 V61 H416 Z M469 24 H470 V25 H469 Z M481 57 H482 V58 H481 Z" fill="#014099" fill-opacity="0.227451" fill-rule="evenodd"/>
  <path d="M56 40 H57 V41 H56 Z M73 53 H74 V54 H73 Z M116 59 H117 V60 H116 Z M194 11 H195 V12 H194 Z M253 56 H254 V57 H253 Z M259 33 H260 V34 H259 Z M290 32 H291 V33 H290 Z M305 45 H306 V46 H305 Z M388 41 H389 V42 H388 Z M391 46 H392 V47 H391 Z M420 47 H421 V48 H420 Z" fill="#014099" fill-opacity="0.317647" fill-rule="evenodd"/>
  <path d="M32 35 H33 V36 H32 Z M77 61 H79 V62 H77 Z M117 50 H118 V51 H117 Z M124 63 H125 V64 H124 Z M126 59 H127 V60 H126 Z M195 12 H196 V13 H195 Z M290 23 H291 V24 H290 Z M365 49 H366 V50 H365 Z M434 28 H435 V29 H434 Z M443 23 H444 V24 H443 Z" fill="#014099" fill-opacity="0.670588" fill-rule="evenodd"/>
  <path d="M40 14 H41 V15 H40 Z M60 53 H61 V54 H60 Z M72 53 H73 V54 H72 Z M261 23 H262 V24 H261 Z M270 50 H271 V51 H270 Z M286 39 H287 V40 H286 Z M306 40 H307 V41 H306 Z M311 56 H312 V57 H311 Z M381 49 H382 V50 H381 Z M429 58 H430 V59 H429 Z M433 29 H434 V30 H433 Z" fill="#014099" fill-opacity="0.945098" fill-rule="evenodd"/>
  <path d="M128 15 H129 V16 H128 Z M252 55 H253 V56 H252 Z M324 61 H325 V62 H324 Z M342 25 H343 V26 H342 Z M375 46 H376 V47 H375 Z M375 61 H376 V62 H375 Z M381 50 H382 V51 H381 Z M400 32 H401 V33 H400 Z M464 25 H465 V26 H464 Z M489 36 H490 V38 H489 Z" fill="#014099" fill-opacity="0.388235" fill-rule="evenodd"/>
  <path d="M94 24 H95 V26 H94 Z M158 15 H159 V16 H158 Z M226 35 H227 V36 H226 Z M258 23 H259 V24 H258 Z M296 57 H297 V58 H296 Z M320 50 H321 V51 H320 Z M336 54 H337 V55 H336 Z M340 27 H341 V28 H340 Z M378 26 H379 V27 H378 Z M477 22 H478 V23 H477 Z" fill="#014099" fill-opacity="0.172549" fill-rule="evenodd"/>
  <path d="M32 31 H33 V32 H32 Z M190 60 H191 V61 H190 Z M269 38 H270 V39 H269 Z M300 33 H301 V34 H300 Z M344 56 H345 V57 H344 Z M387 24 H388 V25 H387 Z M399 25 H400 V26 H399 Z M446 38 H447 V39 H446 Z M467 53 H468 V54 H467 Z M487 57 H488 V58 H487 Z M489 34 H490 V35 H489 Z" fill="#014099" fill-opacity="0.541176" fill-rule="evenodd"/>
  <path d="M94 26 H95 V35 H94 Z M336 29 H337 V30 H336 Z M438 26 H439 V27 H438 Z" fill="#014099" fill-opacity="0.176471" fill-rule="evenodd"/>
  <path d="M11 14 H12 V15 H11 Z M110 6 H111 V7 H110 Z M128 52 H129 V53 H128 Z M158 14 H159 V15 H158 Z M227 10 H228 V11 H227 Z M432 43 H433 V44 H432 Z M433 31 H434 V32 H433 Z M443 61 H444 V62 H443 Z M457 34 H458 V35 H457 Z M478 54 H479 V55 H478 Z" fill="#014099" fill-opacity="0.192157" fill-rule="evenodd"/>
  <path d="M7 57 H8 V58 H7 Z M94 42 H95 V43 H94 Z M111 9 H112 V10 H111 Z M162 57 H163 V58 H162 Z M293 39 H294 V40 H293 Z M345 25 H346 V26 H345 Z M350 24 H351 V25 H350 Z M351 6 H352 V7 H351 Z M354 23 H355 V24 H354 Z M457 47 H458 V48 H457 Z" fill="#014099" fill-opacity="0.678431" fill-rule="evenodd"/>
  <path d="M33 35 H34 V36 H33 Z M34 31 H35 V32 H34 Z M70 50 H71 V51 H70 Z M231 17 H232 V18 H231 Z M287 26 H288 V27 H287 Z M371 60 H372 V61 H371 Z M406 6 H407 V7 H406 Z M436 23 H437 V24 H436 Z M440 58 H441 V59 H440 Z M467 30 H468 V31 H467 Z" fill="#014099" fill-opacity="0.721569" fill-rule="evenodd"/>
  <path d="M5 7 H6 V8 H5 Z M30 58 H31 V59 H30 Z M116 62 H117 V63 H116 Z M266 28 H267 V29 H266 Z M276 58 H277 V59 H276 Z M340 59 H341 V60 H340 Z M427 57 H428 V58 H427 Z M431 41 H432 V42 H431 Z M437 23 H438 V24 H437 Z M477 27 H478 V28 H477 Z" fill="#014099" fill-opacity="0.831373" fill-rule="evenodd"/>
  <path d="M44 7 H45 V8 H44 Z M49 9 H50 V10 H49 Z M70 49 H71 V50 H70 Z M94 35 H95 V36 H94 Z M115 63 H116 V64 H115 Z M161 10 H162 V11 H161 Z M256 32 H257 V33 H256 Z M289 53 H290 V54 H289 Z M344 14 H345 V15 H344 Z M366 30 H367 V31 H366 Z" fill="#014099" fill-opacity="0.168627" fill-rule="evenodd"/>
  <path d="M5 9 H6 V10 H5 Z M56 13 H57 V14 H56 Z M74 54 H75 V55 H74 Z M85 55 H86 V56 H85 Z M97 47 H98 V48 H97 Z M99 15 H100 V16 H99 Z M195 54 H196 V55 H195 Z M219 38 H220 V39 H219 Z M346 7 H347 V8 H346 Z M489 55 H490 V56 H489 Z" fill="#014099" fill-opacity="0.572549" fill-rule="evenodd"/>
  <path d="M104 9 H105 V10 H104 Z M127 53 H128 V54 H127 Z M140 59 H141 V60 H140 Z M222 8 H223 V9 H222 Z M289 60 H290 V61 H289 Z M300 35 H301 V36 H300 Z M331 31 H332 V32 H331 Z M355 50 H356 V51 H355 Z M374 57 H375 V58 H374 Z M389 43 H390 V44 H389 Z" fill="#014099" fill-opacity="0.843137" fill-rule="evenodd"/>
  <path d="M65 58 H66 V59 H65 Z M67 59 H68 V60 H67 Z M69 10 H70 V11 H69 Z M117 54 H118 V55 H117 Z M127 54 H128 V55 H127 Z M258 58 H259 V59 H258 Z M330 23 H331 V24 H330 Z M350 17 H351 V18 H350 Z M354 8 H355 V9 H354 Z M383 23 H384 V24 H383 Z" fill="#014099" fill-opacity="0.760784" fill-rule="evenodd"/>
  <path d="M8 57 H9 V58 H8 Z M24 56 H25 V57 H24 Z M88 9 H89 V10 H88 Z M158 55 H159 V56 H158 Z M161 57 H162 V58 H161 Z M194 56 H195 V57 H194 Z M247 24 H248 V25 H247 Z M366 35 H367 V36 H366 Z M373 24 H374 V25 H373 Z M431 40 H432 V41 H431 Z" fill="#014099" fill-opacity="0.827451" fill-rule="evenodd"/>
  <path d="M41 42 H42 V43 H41 Z M51 10 H52 V11 H51 Z M127 58 H128 V59 H127 Z M221 38 H222 V39 H221 Z M267 27 H268 V28 H267 Z M276 59 H277 V60 H276 Z M346 24 H347 V25 H346 Z M384 30 H385 V31 H384 Z M390 43 H391 V44 H390 Z M445 36 H446 V37 H445 Z" fill="#014099" fill-opacity="0.054902" fill-rule="evenodd"/>
  <path d="M23 52 H24 V53 H23 Z M89 10 H90 V11 H89 Z M143 10 H144 V11 H143 Z M158 51 H159 V52 H158 Z M279 42 H280 V43 H279 Z M281 61 H282 V62 H281 Z M372 61 H373 V62 H372 Z M382 37 H383 V38 H382 Z M396 25 H397 V26 H396 Z M448 24 H449 V25 H448 Z" fill="#014099" fill-opacity="0.164706" fill-rule="evenodd"/>
  <path d="M99 38 H100 V39 H99 Z M188 60 H189 V61 H188 Z M191 10 H192 V11 H191 Z M252 28 H253 V29 H252 Z M268 41 H269 V42 H268 Z M280 32 H281 V33 H280 Z M305 47 H306 V48 H305 Z M308 54 H309 V55 H308 Z M321 23 H322 V24 H321 Z M424 29 H425 V30 H424 Z" fill="#014099" fill-opacity="0.101961" fill-rule="evenodd"/>
  <path d="M23 53 H24 V54 H23 Z M36 11 H37 V12 H36 Z M56 42 H57 V43 H56 Z M69 47 H70 V48 H69 Z M285 40 H286 V41 H285 Z M289 29 H290 V30 H289 Z M300 51 H301 V52 H300 Z M319 24 H320 V25 H319 Z M435 61 H436 V62 H435 Z M458 44 H459 V45 H458 Z" fill="#014099" fill-opacity="0.247059" fill-rule="evenodd"/>
  <path d="M100 13 H101 V14 H100 Z M115 11 H116 V12 H115 Z M259 59 H260 V60 H259 Z M300 53 H301 V54 H300 Z M317 45 H318 V46 H317 Z M320 28 H321 V29 H320 Z M333 23 H334 V24 H333 Z M374 56 H375 V57 H374 Z M420 36 H421 V37 H420 Z M432 39 H433 V40 H432 Z" fill="#014099" fill-opacity="0.0666667" fill-rule="evenodd"/>
  <path d="M128 13 H129 V14 H128 Z M189 60 H190 V61 H189 Z M213 39 H214 V40 H213 Z M279 44 H280 V45 H279 Z M345 15 H346 V16 H345 Z M345 33 H346 V35 H345 Z M345 51 H346 V53 H345 Z M372 24 H373 V25 H372 Z" fill="#014099" fill-opacity="0.490196" fill-rule="evenodd"/>
  <path d="M56 16 H57 V17 H56 Z M68 44 H69 V45 H68 Z M210 35 H212 V36 H210 Z M280 36 H281 V37 H280 Z M307 35 H308 V36 H307 Z M322 27 H323 V28 H322 Z M400 33 H401 V34 H400 Z M400 52 H401 V53 H400 Z M445 53 H446 V54 H445 Z" fill="#014099" fill-opacity="0.380392" fill-rule="evenodd"/>
  <path d="M147 16 H148 V17 H147 Z M258 59 H259 V60 H258 Z M278 41 H279 V42 H278 Z M315 38 H316 V41 H315 Z M345 30 H346 V31 H345 Z M355 52 H356 V53 H355 Z M356 56 H357 V57 H356 Z M457 46 H458 V47 H457 Z" fill="#014099" fill-opacity="0.862745" fill-rule="evenodd"/>
  <path d="M58 50 H59 V51 H58 Z M67 36 H68 V37 H67 Z M69 60 H70 V61 H69 Z M93 46 H94 V47 H93 Z M163 57 H164 V58 H163 Z M344 29 H345 V30 H344 Z M345 54 H346 V55 H345 Z M353 16 H354 V17 H353 Z M386 58 H387 V59 H386 Z M409 23 H410 V24 H409 Z" fill="#014099" fill-opacity="0.603922" fill-rule="evenodd"/>
  <path d="M41 17 H42 V18 H41 Z M67 39 H68 V40 H67 Z M117 70 H118 V71 H117 Z M238 28 H239 V29 H238 Z M310 31 H311 V32 H310 Z M313 58 H314 V59 H313 Z M358 57 H359 V58 H358 Z M366 36 H367 V37 H366 Z M372 44 H373 V45 H372 Z M455 52 H456 V53 H455 Z" fill="#014099" fill-opacity="0.686275" fill-rule="evenodd"/>
  <path d="M25 56 H26 V57 H25 Z M60 54 H61 V55 H60 Z M71 51 H72 V52 H71 Z M220 22 H221 V23 H220 Z M316 34 H317 V35 H316 Z M380 49 H381 V50 H380 Z M399 29 H400 V30 H399 Z M400 53 H401 V54 H400 Z M489 51 H490 V53 H489 Z" fill="#014099" fill-opacity="0.392157" fill-rule="evenodd"/>
  <path d="M67 41 H68 V42 H67 Z M80 56 H81 V57 H80 Z M94 43 H95 V44 H94 Z M241 30 H242 V31 H241 Z M242 25 H243 V26 H242 Z M266 29 H267 V30 H266 Z M296 52 H297 V53 H296 Z M370 53 H371 V54 H370 Z M387 57 H388 V58 H387 Z M487 23 H488 V24 H487 Z" fill="#014099" fill-opacity="0.788235" fill-rule="evenodd"/>
  <path d="M10 56 H11 V57 H10 Z M98 39 H99 V40 H98 Z M192 57 H193 V58 H192 Z M209 38 H210 V39 H209 Z M290 30 H291 V31 H290 Z M329 59 H330 V60 H329 Z M388 28 H389 V29 H388 Z M406 24 H407 V25 H406 Z M439 58 H440 V59 H439 Z M486 29 H487 V30 H486 Z" fill="#014099" fill-opacity="0.803922" fill-rule="evenodd"/>
  <path d="M11 55 H12 V56 H11 Z M39 41 H40 V42 H39 Z M243 25 H244 V26 H243 Z M288 39 H289 V40 H288 Z M315 36 H316 V37 H315 Z M355 53 H356 V54 H355 Z M366 34 H367 V35 H366 Z M378 36 H379 V37 H378 Z M477 33 H478 V34 H477 Z M477 52 H478 V53 H477 Z" fill="#014099" fill-opacity="0.882353" fill-rule="evenodd"/>
  <path d="M22 35 H23 V36 H22 Z M293 58 H294 V59 H293 Z M360 58 H361 V59 H360 Z M367 30 H368 V31 H367 Z M422 34 H423 V35 H422 Z M423 32 H424 V33 H423 Z M429 26 H430 V27 H429 Z M431 44 H432 V45 H431 Z M444 29 H445 V30 H444 Z M498 29 H499 V30 H498 Z" fill="#014099" fill-opacity="0.956863" fill-rule="evenodd"/>
  <path d="M11 51 H12 V52 H11 Z M252 54 H253 V55 H252 Z M254 27 H255 V28 H254 Z M268 42 H269 V43 H268 Z M298 55 H299 V56 H298 Z M332 52 H333 V53 H332 Z M365 55 H366 V56 H365 Z M384 38 H385 V39 H384 Z M431 60 H432 V61 H431 Z M457 49 H458 V50 H457 Z" fill="#014099" fill-opacity="0.160784" fill-rule="evenodd"/>
  <path d="M74 9 H75 V10 H74 Z M125 62 H126 V63 H125 Z M128 49 H129 V50 H128 Z M213 6 H214 V7 H213 Z M232 24 H233 V25 H232 Z M288 53 H289 V54 H288 Z M290 35 H291 V36 H290 Z M298 39 H299 V40 H298 Z M320 61 H321 V62 H320 Z" fill="#014099" fill-opacity="0.290196" fill-rule="evenodd"/>
  <path d="M23 11 H24 V12 H23 Z M35 36 H36 V37 H35 Z M146 13 H147 V14 H146 Z M215 6 H216 V7 H215 Z M270 52 H271 V53 H270 Z M278 25 H279 V26 H278 Z M319 61 H320 V62 H319 Z M458 38 H459 V39 H458 Z M479 27 H480 V28 H479 Z" fill="#014099" fill-opacity="0.223529" fill-rule="evenodd"/>
  <path d="M35 11 H36 V12 H35 Z M85 9 H86 V10 H85 Z M92 47 H93 V48 H92 Z M218 6 H219 V7 H218 Z M263 34 H264 V35 H263 Z M330 22 H331 V23 H330 Z M383 22 H384 V23 H383 Z M433 32 H434 V33 H433 Z M442 28 H443 V29 H442 Z" fill="#014099" fill-opacity="0.0588235" fill-rule="evenodd"/>
  <path d="M97 46 H98 V47 H97 Z M128 12 H129 V13 H128 Z M210 57 H211 V58 H210 Z M291 39 H292 V40 H291 Z M344 12 H345 V13 H344 Z M349 6 H350 V7 H349 Z M436 26 H437 V27 H436 Z M443 28 H444 V29 H443 Z M476 23 H477 V24 H476 Z" fill="#014099" fill-opacity="0.784314" fill-rule="evenodd"/>
  <path d="M23 10 H24 V11 H23 Z M81 56 H82 V57 H81 Z M134 7 H135 V8 H134 Z M231 26 H232 V27 H231 Z M251 23 H252 V24 H251 Z M280 30 H281 V31 H280 Z M333 24 H334 V25 H333 Z M350 6 H351 V7 H350 Z M374 32 H375 V33 H374 Z" fill="#014099" fill-opacity="0.792157" fill-rule="evenodd"/>
  <path d="M110 73 H111 V74 H110 Z M117 13 H118 V14 H117 Z M214 10 H215 V11 H214 Z M253 33 H254 V34 H253 Z M355 10 H356 V11 H355 Z M386 40 H387 V41 H386 Z M404 6 H405 V7 H404 Z M405 17 H406 V18 H405 Z M444 60 H445 V61 H444 Z" fill="#014099" fill-opacity="0.768627" fill-rule="evenodd"/>
  <path d="M33 31 H34 V32 H33 Z M38 40 H39 V41 H38 Z M50 9 H51 V10 H50 Z M67 17 H68 V18 H67 Z M67 37 H68 V38 H67 Z M98 41 H99 V42 H98 Z M219 7 H220 V8 H219 Z M335 30 H336 V31 H335 Z M478 56 H479 V57 H478 Z" fill="#014099" fill-opacity="0.627451" fill-rule="evenodd"/>
  <path d="M73 61 H74 V62 H73 Z M94 18 H95 V19 H94 Z M113 67 H114 V68 H113 Z M129 11 H130 V12 H129 Z M328 60 H329 V61 H328 Z M388 26 H389 V27 H388 Z M399 10 H400 V11 H399 Z M401 7 H402 V8 H401 Z M446 41 H447 V42 H446 Z" fill="#014099" fill-opacity="0.4" fill-rule="evenodd"/>
  <path d="M11 52 H12 V53 H11 Z M210 39 H211 V40 H210 Z M224 8 H225 V9 H224 Z M232 25 H233 V26 H232 Z M287 40 H288 V41 H287 Z M340 57 H341 V58 H340 Z M368 48 H369 V49 H368 Z M409 7 H410 V8 H409 Z M433 23 H434 V24 H433 Z" fill="#014099" fill-opacity="0.188235" fill-rule="evenodd"/>
  <path d="M134 8 H135 V9 H134 Z M210 9 H211 V10 H210 Z M228 12 H229 V13 H228 Z M251 36 H252 V37 H251 Z M262 23 H263 V24 H262 Z M269 46 H270 V47 H269 Z M270 36 H271 V37 H270 Z M298 54 H299 V55 H298 Z M402 25 H403 V26 H402 Z" fill="#014099" fill-opacity="0.878431" fill-rule="evenodd"/>
  <path d="M44 9 H45 V10 H44 Z M127 57 H128 V58 H127 Z M257 32 H258 V33 H257 Z M305 41 H306 V42 H305 Z M329 53 H330 V54 H329 Z M365 54 H366 V55 H365 Z M395 60 H396 V61 H395 Z M425 56 H426 V57 H425 Z M439 26 H440 V27 H439 Z" fill="#014099" fill-opacity="0.254902" fill-rule="evenodd"/>
  <path d="M86 9 H87 V10 H86 Z M271 33 H272 V34 H271 Z M342 57 H343 V58 H342 Z M359 60 H360 V61 H359 Z M368 49 H369 V50 H368 Z M382 55 H383 V56 H382 Z M423 31 H424 V32 H423 Z M467 32 H468 V33 H467 Z M503 60 H504 V61 H503 Z" fill="#014099" fill-opacity="0.537255" fill-rule="evenodd"/>
  <path d="M133 9 H134 V10 H133 Z M236 58 H237 V59 H236 Z M266 26 H267 V27 H266 Z M292 59 H293 V60 H292 Z M299 53 H300 V54 H299 Z M318 25 H319 V26 H318 Z M327 60 H328 V61 H327 Z M404 17 H405 V18 H404 Z M430 25 H431 V26 H430 Z" fill="#014099" fill-opacity="0.713725" fill-rule="evenodd"/>
  <path d="M23 54 H24 V55 H23 Z M27 10 H30 V11 H27 Z M281 36 H282 V37 H281 Z M365 52 H366 V53 H365 Z M366 58 H367 V59 H366 Z M438 61 H439 V62 H438 Z M446 40 H447 V41 H446 Z" fill="#014099" fill-opacity="0.427451" fill-rule="evenodd"/>
  <path d="M22 13 H23 V14 H22 Z M22 48 H23 V50 H22 Z M57 44 H58 V45 H57 Z M145 10 H146 V11 H145 Z M221 37 H222 V38 H221 Z M315 37 H316 V38 H315 Z M319 50 H320 V51 H319 Z M441 26 H442 V27 H441 Z" fill="#014099" fill-opacity="0.866667" fill-rule="evenodd"/>
  <path d="M27 57 H28 V58 H27 Z M41 26 H42 V27 H41 Z M94 15 H95 V16 H94 Z M207 10 H208 V11 H207 Z M237 26 H238 V27 H237 Z M366 57 H367 V58 H366 Z M398 28 H399 V29 H398 Z M398 57 H399 V58 H398 Z M472 24 H473 V25 H472 Z" fill="#014099" fill-opacity="0.74902" fill-rule="evenodd"/>
  <path d="M55 12 H56 V13 H55 Z M68 13 H69 V14 H68 Z M99 39 H100 V40 H99 Z M337 51 H338 V52 H337 Z M379 57 H380 V58 H379 Z M406 23 H407 V24 H406 Z M476 22 H477 V23 H476 Z M487 22 H488 V23 H487 Z M494 23 H495 V24 H494 Z" fill="#014099" fill-opacity="0.0745098" fill-rule="evenodd"/>
  <path d="M158 12 H159 V13 H158 Z M245 24 H246 V25 H245 Z M277 26 H278 V27 H277 Z M279 60 H280 V61 H279 Z M287 53 H288 V54 H287 Z M336 27 H337 V28 H336 Z M387 34 H388 V35 H387 Z M446 39 H447 V40 H446 Z M446 48 H447 V49 H446 Z" fill="#014099" fill-opacity="0.458824" fill-rule="evenodd"/>
  <path d="M44 13 H45 V14 H44 Z M273 56 H274 V57 H273 Z M296 26 H297 V27 H296 Z M300 52 H301 V53 H300 Z M306 38 H307 V39 H306 Z M397 57 H398 V58 H397 Z M432 60 H433 V61 H432 Z M466 56 H467 V57 H466 Z M480 57 H481 V58 H480 Z" fill="#014099" fill-opacity="0.486275" fill-rule="evenodd"/>
  <path d="M43 19 H44 V20 H43 Z M44 15 H45 V16 H44 Z M57 46 H58 V47 H57 Z M68 45 H69 V46 H68 Z M206 13 H207 V14 H206 Z M276 27 H277 V28 H276 Z M365 50 H366 V51 H365 Z M400 55 H401 V56 H400 Z M406 17 H407 V18 H406 Z" fill="#014099" fill-opacity="0.623529" fill-rule="evenodd"/>
  <path d="M99 16 H100 V17 H99 Z M209 35 H210 V36 H209 Z M240 56 H241 V57 H240 Z M283 36 H284 V37 H283 Z M297 27 H298 V28 H297 Z M404 24 H405 V25 H404 Z M465 25 H466 V26 H465 Z M485 29 H486 V30 H485 Z M500 55 H501 V56 H500 Z" fill="#014099" fill-opacity="0.466667" fill-rule="evenodd"/>
  <path d="M41 27 H42 V28 H41 Z M117 52 H118 V53 H117 Z M220 18 H221 V19 H220 Z M280 60 H281 V61 H280 Z M281 24 H282 V25 H281 Z M300 34 H301 V35 H300 Z M334 31 H335 V32 H334 Z M413 57 H414 V58 H413 Z M446 50 H447 V51 H446 Z" fill="#014099" fill-opacity="0.709804" fill-rule="evenodd"/>
  <path d="M24 55 H25 V56 H24 Z M69 46 H70 V47 H69 Z M232 18 H233 V19 H232 Z M252 30 H253 V31 H252 Z M316 36 H317 V37 H316 Z M437 22 H438 V23 H437 Z M450 25 H451 V26 H450 Z M455 30 H456 V31 H455 Z M480 26 H481 V27 H480 Z" fill="#014099" fill-opacity="0.0941176" fill-rule="evenodd"/>
  <path d="M164 57 H165 V58 H164 Z M195 53 H196 V54 H195 Z M272 31 H273 V32 H272 Z M316 43 H317 V44 H316 Z M434 23 H435 V24 H434 Z M437 26 H438 V27 H437 Z M452 27 H453 V28 H452 Z M483 29 H485 V30 H483 Z" fill="#014099" fill-opacity="0.372549" fill-rule="evenodd"/>
  <path d="M87 54 H88 V55 H87 Z M120 68 H121 V69 H120 Z M122 66 H123 V67 H122 Z M220 24 H221 V25 H220 Z M224 36 H225 V37 H224 Z M282 36 H283 V37 H282 Z M285 61 H286 V62 H285 Z M323 61 H324 V62 H323 Z M336 28 H337 V29 H336 Z" fill="#014099" fill-opacity="0.447059" fill-rule="evenodd"/>
  <path d="M75 54 H76 V55 H75 Z M93 13 H94 V14 H93 Z M159 11 H160 V12 H159 Z M189 6 H190 V7 H189 Z M236 57 H237 V58 H236 Z M347 24 H348 V25 H347 Z M421 34 H422 V35 H421 Z M473 23 H474 V24 H473 Z" fill="#014099" fill-opacity="0.180392" fill-rule="evenodd"/>
  <path d="M70 10 H71 V11 H70 Z M77 55 H78 V56 H77 Z M158 54 H159 V55 H158 Z M321 61 H322 V62 H321 Z M330 59 H331 V60 H330 Z M352 6 H353 V7 H352 Z M370 43 H371 V44 H370 Z M454 54 H455 V55 H454 Z" fill="#014099" fill-opacity="0.34902" fill-rule="evenodd"/>
  <path d="M58 49 H59 V50 H58 Z M140 58 H141 V59 H140 Z M143 57 H144 V58 H143 Z M263 33 H264 V34 H263 Z M376 46 H377 V47 H376 Z M377 23 H378 V24 H377 Z M408 7 H409 V8 H408 Z M431 39 H432 V40 H431 Z" fill="#014099" fill-opacity="0.823529" fill-rule="evenodd"/>
  <path d="M164 9 H165 V10 H164 Z M220 25 H221 V26 H220 Z M223 8 H224 V9 H223 Z M321 27 H322 V28 H321 Z M332 32 H333 V33 H332 Z M411 55 H412 V56 H411 Z M416 58 H417 V59 H416 Z M478 31 H479 V32 H478 Z" fill="#014099" fill-opacity="0.521569" fill-rule="evenodd"/>
  <path d="M38 26 H39 V27 H38 Z M62 56 H63 V57 H62 Z M67 35 H68 V36 H67 Z M316 44 H317 V45 H316 Z M345 8 H346 V9 H345 Z M382 27 H383 V28 H382 Z M389 32 H390 V33 H389 Z M432 33 H433 V34 H432 Z" fill="#014099" fill-opacity="0.592157" fill-rule="evenodd"/>
  <path d="M67 14 H68 V15 H67 Z M105 9 H106 V10 H105 Z M206 52 H207 V53 H206 Z M284 52 H285 V53 H284 Z M331 53 H332 V54 H331 Z M376 23 H377 V24 H376 Z M423 53 H424 V54 H423 Z M449 58 H450 V59 H449 Z" fill="#014099" fill-opacity="0.698039" fill-rule="evenodd"/>
  <path d="M163 9 H164 V10 H163 Z M190 9 H191 V10 H190 Z M251 30 H252 V31 H251 Z M275 28 H276 V29 H275 Z M306 48 H307 V49 H306 Z M442 27 H443 V28 H442 Z M456 33 H457 V34 H456 Z M499 31 H500 V32 H499 Z" fill="#014099" fill-opacity="0.701961" fill-rule="evenodd"/>
  <path d="M66 59 H67 V60 H66 Z M189 9 H190 V10 H189 Z M280 31 H281 V32 H280 Z M292 53 H293 V54 H292 Z M297 39 H298 V40 H297 Z M323 27 H324 V28 H323 Z M341 28 H342 V29 H341 Z M451 57 H452 V58 H451 Z" fill="#014099" fill-opacity="0.415686" fill-rule="evenodd"/>
  <path d="M44 16 H45 V17 H44 Z M94 16 H95 V17 H94 Z M117 49 H118 V50 H117 Z M215 34 H216 V35 H215 Z M219 29 H220 V30 H219 Z M307 51 H308 V52 H307 Z M410 9 H411 V10 H410 Z M437 57 H438 V58 H437 Z" fill="#014099" fill-opacity="0.658824" fill-rule="evenodd"/>
  <path d="M8 10 H9 V11 H8 Z M37 38 H38 V39 H37 Z M71 61 H72 V62 H71 Z M86 60 H87 V61 H86 Z M88 53 H89 V54 H88 Z M103 10 H104 V11 H103 Z M214 60 H215 V61 H214 Z M387 40 H388 V41 H387 Z" fill="#014099" fill-opacity="0.207843" fill-rule="evenodd"/>
  <path d="M33 10 H34 V11 H33 Z M85 60 H86 V61 H85 Z M92 11 H93 V12 H92 Z M212 35 H213 V36 H212 Z M287 36 H288 V37 H287 Z M309 32 H310 V33 H309 Z M436 56 H437 V57 H436 Z M478 28 H479 V29 H478 Z" fill="#014099" fill-opacity="0.529412" fill-rule="evenodd"/>
  <path d="M74 61 H75 V62 H74 Z M130 10 H131 V11 H130 Z M141 60 H142 V61 H141 Z M190 57 H191 V58 H190 Z M280 47 H281 V48 H280 Z M341 60 H342 V61 H341 Z M383 38 H384 V39 H383 Z M415 60 H416 V61 H415 Z" fill="#014099" fill-opacity="0.54902" fill-rule="evenodd"/>
  <path d="M23 36 H24 V37 H23 Z M39 14 H40 V15 H39 Z M132 10 H133 V11 H132 Z M252 52 H253 V53 H252 Z M260 22 H261 V23 H260 Z M329 22 H330 V23 H329 Z M351 23 H352 V24 H351 Z M409 16 H410 V17 H409 Z" fill="#014099" fill-opacity="0.105882" fill-rule="evenodd"/>
  <path d="M37 11 H38 V12 H37 Z M67 40 H68 V41 H67 Z M213 35 H214 V36 H213 Z M219 15 H220 V16 H219 Z M317 47 H318 V48 H317 Z M355 23 H356 V24 H355 Z M378 58 H379 V59 H378 Z M420 44 H421 V45 H420 Z" fill="#014099" fill-opacity="0.72549" fill-rule="evenodd"/>
  <path d="M55 11 H56 V12 H55 Z M94 17 H95 V18 H94 Z M94 41 H95 V42 H94 Z M284 26 H285 V27 H284 Z M288 27 H289 V28 H288 Z M372 55 H373 V56 H372 Z M414 60 H415 V61 H414 Z M487 60 H488 V61 H487 Z" fill="#014099" fill-opacity="0.52549" fill-rule="evenodd"/>
  <path d="M36 36 H37 V37 H36 Z M39 13 H40 V14 H39 Z M41 39 H42 V40 H41 Z M116 11 H117 V12 H116 Z M117 51 H118 V52 H117 Z M250 23 H251 V24 H250 Z M367 39 H368 V40 H367 Z M382 51 H383 V52 H382 Z" fill="#014099" fill-opacity="0.690196" fill-rule="evenodd"/>
  <path d="M93 55 H94 V56 H93 Z M128 48 H129 V49 H128 Z M215 11 H216 V12 H215 Z M232 20 H233 V21 H232 Z M334 24 H335 V25 H334 Z M374 61 H375 V62 H374 Z M442 57 H443 V58 H442 Z M474 23 H475 V24 H474 Z" fill="#014099" fill-opacity="0.321569" fill-rule="evenodd"/>
  <path d="M68 12 H69 V13 H68 Z M188 58 H189 V59 H188 Z M228 11 H229 V12 H228 Z M300 38 H301 V39 H300 Z M307 52 H308 V53 H307 Z M311 57 H312 V58 H311 Z M429 59 H430 V60 H429 Z M462 57 H463 V58 H462 Z" fill="#014099" fill-opacity="0.243137" fill-rule="evenodd"/>
  <path d="M38 12 H39 V13 H38 Z M98 42 H99 V43 H98 Z M111 73 H112 V74 H111 Z M277 59 H278 V60 H277 Z M344 25 H345 V26 H344 Z M435 27 H436 V28 H435 Z M446 49 H447 V50 H446 Z M466 25 H467 V26 H466 Z" fill="#014099" fill-opacity="0.560784" fill-rule="evenodd"/>
  <path d="M157 16 H158 V17 H157 Z M157 50 H158 V51 H157 Z M269 42 H270 V43 H269 Z M280 48 H281 V49 H280 Z M355 54 H356 V55 H355 Z M402 16 H403 V17 H402 Z M410 13 H411 V14 H410 Z M426 56 H427 V57 H426 Z" fill="#014099" fill-opacity="0.909804" fill-rule="evenodd"/>
  <path d="M56 39 H57 V40 H56 Z M84 55 H85 V56 H84 Z M92 56 H93 V57 H92 Z M98 44 H99 V45 H98 Z M195 14 H196 V15 H195 Z M257 24 H258 V25 H257 Z M280 24 H281 V25 H280 Z M493 23 H494 V24 H493 Z" fill="#014099" fill-opacity="0.345098" fill-rule="evenodd"/>
  <path d="M40 41 H41 V42 H40 Z M98 21 H99 V22 H98 Z M157 52 H158 V53 H157 Z M214 35 H215 V36 H214 Z M219 14 H220 V15 H219 Z M272 54 H273 V55 H272 Z M292 24 H293 V25 H292 Z M330 30 H331 V31 H330 Z" fill="#014099" fill-opacity="0.952941" fill-rule="evenodd"/>
  <path d="M67 38 H68 V39 H67 Z M117 16 H118 V17 H117 Z M117 47 H118 V48 H117 Z M246 24 H247 V25 H246 Z M333 52 H334 V53 H333 Z M366 47 H367 V48 H366 Z M435 55 H436 V56 H435 Z M484 24 H485 V25 H484 Z" fill="#014099" fill-opacity="0.65098" fill-rule="evenodd"/>
  <path d="M71 60 H72 V61 H71 Z M75 55 H76 V56 H75 Z M219 30 H220 V31 H219 Z M279 32 H280 V33 H279 Z M315 35 H316 V36 H315 Z M347 16 H348 V17 H347 Z M382 56 H383 V57 H382 Z M384 39 H385 V40 H384 Z" fill="#014099" fill-opacity="0.941176" fill-rule="evenodd"/>
  <path d="M38 41 H39 V42 H38 Z M41 18 H42 V19 H41 Z M91 50 H92 V51 H91 Z M94 40 H95 V41 H94 Z M258 60 H259 V61 H258 Z M279 35 H280 V36 H279 Z M388 34 H389 V35 H388 Z M408 23 H409 V24 H408 Z" fill="#014099" fill-opacity="0.384314" fill-rule="evenodd"/>
  <path d="M36 30 H37 V31 H36 Z M39 25 H40 V26 H39 Z M297 51 H298 V52 H297 Z M391 48 H392 V49 H391 Z M435 23 H436 V24 H435 Z M449 25 H450 V26 H449 Z M486 23 H487 V24 H486 Z M487 30 H488 V31 H487 Z" fill="#014099" fill-opacity="0.533333" fill-rule="evenodd"/>
  <path d="M94 38 H95 V39 H94 Z M123 65 H124 V66 H123 Z M227 34 H228 V35 H227 Z M284 40 H285 V41 H284 Z M293 59 H294 V60 H293 Z M317 25 H318 V26 H317 Z M442 61 H443 V62 H442 Z M446 60 H447 V61 H446 Z" fill="#014099" fill-opacity="0.278431" fill-rule="evenodd"/>
  <path d="M94 39 H95 V40 H94 Z M97 48 H98 V49 H97 Z M193 56 H194 V57 H193 Z M255 26 H256 V27 H255 Z M283 61 H284 V62 H283 Z M287 61 H288 V62 H287 Z M365 53 H366 V54 H365 Z M396 57 H397 V58 H396 Z" fill="#014099" fill-opacity="0.329412" fill-rule="evenodd"/>
  <path d="M24 35 H25 V36 H24 Z M116 61 H117 V62 H116 Z M208 38 H209 V39 H208 Z M289 36 H290 V37 H289 Z M293 53 H294 V54 H293 Z M388 27 H389 V28 H388 Z M420 40 H421 V41 H420 Z M464 28 H465 V29 H464 Z" fill="#014099" fill-opacity="0.615686" fill-rule="evenodd"/>
  <path d="M5 6 H6 V7 H5 Z M10 11 H11 V12 H10 Z M158 13 H159 V14 H158 Z M164 6 H165 V7 H164 Z M369 60 H370 V61 H369 Z M411 24 H412 V25 H411 Z M424 55 H425 V56 H424 Z" fill="#014099" fill-opacity="0.231373" fill-rule="evenodd"/>
  <path d="M50 6 H51 V7 H50 Z M72 52 H73 V53 H72 Z M279 43 H280 V44 H279 Z M383 60 H384 V61 H383 Z M444 55 H445 V56 H444 Z M456 51 H457 V52 H456 Z M480 30 H481 V31 H480 Z" fill="#014099" fill-opacity="0.286275" fill-rule="evenodd"/>
  <path d="M74 6 H75 V7 H74 Z M356 54 H357 V55 H356 Z M402 17 H403 V18 H402 Z M420 48 H421 V49 H420 Z M455 53 H456 V54 H455 Z M461 59 H462 V60 H461 Z M500 33 H501 V34 H500 Z" fill="#014099" fill-opacity="0.133333" fill-rule="evenodd"/>
  <path d="M86 6 H87 V7 H86 Z M109 73 H110 V74 H109 Z M218 14 H219 V15 H218 Z M335 50 H336 V51 H335 Z M389 42 H390 V43 H389 Z M485 23 H486 V24 H485 Z M504 57 H505 V58 H504 Z" fill="#014099" fill-opacity="0.239216" fill-rule="evenodd"/>
  <path d="M126 60 H127 V61 H126 Z M214 6 H215 V7 H214 Z M232 19 H233 V20 H232 Z M282 61 H283 V62 H282 Z M373 61 H374 V62 H373 Z M432 35 H433 V36 H432 Z M454 29 H455 V30 H454 Z" fill="#014099" fill-opacity="0.266667" fill-rule="evenodd"/>
  <path d="M94 21 H95 V22 H94 Z M347 6 H348 V7 H347 Z M352 17 H353 V18 H352 Z M411 54 H412 V55 H411 Z M445 34 H446 V35 H445 Z M451 26 H452 V27 H451 Z M500 34 H501 V35 H500 Z" fill="#014099" fill-opacity="0.270588" fill-rule="evenodd"/>
  <path d="M91 10 H92 V11 H91 Z M106 8 H107 V9 H106 Z M282 27 H283 V28 H282 Z M371 25 H372 V26 H371 Z M405 6 H406 V7 H405 Z M442 23 H443 V24 H442 Z M494 24 H495 V25 H494 Z" fill="#014099" fill-opacity="0.8" fill-rule="evenodd"/>
  <path d="M51 9 H52 V10 H51 Z M145 56 H146 V57 H145 Z M189 8 H190 V9 H189 Z M292 39 H293 V40 H292 Z M306 39 H307 V40 H306 Z M340 58 H341 V59 H340 Z M445 54 H446 V55 H445 Z" fill="#014099" fill-opacity="0.745098" fill-rule="evenodd"/>
  <path d="M88 59 H89 V60 H88 Z M188 59 H189 V60 H188 Z M282 23 H283 V24 H282 Z M288 61 H289 V62 H288 Z M290 33 H291 V34 H290 Z M308 33 H309 V34 H308 Z M344 9 H345 V10 H344 Z" fill="#014099" fill-opacity="0.25098" fill-rule="evenodd"/>
  <path d="M9 10 H10 V11 H9 Z M28 60 H29 V61 H28 Z M95 52 H96 V53 H95 Z M220 19 H221 V20 H220 Z M283 51 H284 V52 H283 Z M290 31 H291 V32 H290 Z M440 26 H441 V27 H440 Z" fill="#014099" fill-opacity="0.509804" fill-rule="evenodd"/>
  <path d="M102 10 H103 V11 H102 Z M206 12 H207 V13 H206 Z M206 32 H207 V33 H206 Z M206 40 H207 V41 H206 Z M316 26 H317 V27 H316 Z M328 29 H329 V30 H328 Z M367 29 H368 V30 H367 Z" fill="#014099" fill-opacity="0.639216" fill-rule="evenodd"/>
  <path d="M56 43 H57 V44 H56 Z M116 12 H117 V13 H116 Z M131 10 H132 V11 H131 Z M286 40 H287 V41 H286 Z M305 46 H306 V47 H305 Z M347 17 H348 V18 H347 Z M386 23 H387 V24 H386 Z" fill="#014099" fill-opacity="0.215686" fill-rule="evenodd"/>
  <path d="M67 13 H68 V14 H67 Z M94 53 H95 V54 H94 Z M226 10 H227 V11 H226 Z M236 59 H237 V60 H236 Z M269 47 H270 V48 H269 Z M290 39 H291 V40 H290 Z M381 60 H382 V61 H381 Z" fill="#014099" fill-opacity="0.815686" fill-rule="evenodd"/>
  <path d="M44 14 H45 V15 H44 Z M80 61 H81 V62 H80 Z M294 39 H295 V40 H294 Z M317 60 H318 V61 H317 Z M384 23 H385 V24 H384 Z M399 11 H400 V12 H399 Z M445 60 H446 V61 H445 Z" fill="#014099" fill-opacity="0.580392" fill-rule="evenodd"/>
  <path d="M44 12 H45 V13 H44 Z M262 34 H263 V35 H262 Z M281 29 H282 V30 H281 Z M295 52 H296 V53 H295 Z M334 51 H335 V52 H334 Z M420 38 H421 V39 H420 Z M497 26 H498 V27 H497 Z" fill="#014099" fill-opacity="0.376471" fill-rule="evenodd"/>
  <path d="M128 14 H129 V15 H128 Z M215 39 H216 V40 H215 Z M282 40 H283 V41 H282 Z M314 27 H315 V28 H314 Z M385 23 H386 V24 H385 Z M432 34 H433 V35 H432 Z M499 30 H500 V31 H499 Z" fill="#014099" fill-opacity="0.411765" fill-rule="evenodd"/>
  <path d="M147 50 H148 V51 H147 Z M231 18 H232 V19 H231 Z M251 25 H252 V26 H251 Z M329 23 H330 V24 H329 Z M400 14 H401 V15 H400 Z M441 58 H442 V59 H441 Z M450 26 H451 V27 H450 Z" fill="#014099" fill-opacity="0.854902" fill-rule="evenodd"/>
  <path d="M67 15 H68 V16 H67 Z M87 59 H88 V60 H87 Z M142 57 H143 V58 H142 Z M231 27 H232 V28 H231 Z M269 48 H270 V49 H269 Z M284 23 H285 V24 H284 Z M446 37 H447 V38 H446 Z" fill="#014099" fill-opacity="0.67451" fill-rule="evenodd"/>
  <path d="M93 45 H94 V46 H93 Z M232 23 H233 V24 H232 Z M317 31 H318 V32 H317 Z M325 53 H326 V54 H325 Z M396 28 H397 V29 H396 Z M401 16 H402 V17 H401 Z M500 54 H501 V55 H500 Z" fill="#014099" fill-opacity="0.32549" fill-rule="evenodd"/>
  <path d="M40 25 H41 V26 H40 Z M67 19 H68 V20 H67 Z M141 57 H142 V58 H141 Z M206 33 H207 V34 H206 Z M255 57 H256 V58 H255 Z M293 24 H294 V25 H293 Z M342 28 H343 V29 H342 Z" fill="#014099" fill-opacity="0.596078" fill-rule="evenodd"/>
  <path d="M237 60 H238 V61 H237 Z M259 23 H260 V24 H259 Z M279 36 H280 V37 H279 Z M320 24 H321 V25 H320 Z M369 51 H370 V52 H369 Z M416 59 H417 V60 H416 Z M433 51 H434 V52 H433 Z" fill="#014099" fill-opacity="0.568627" fill-rule="evenodd"/>
  <path d="M109 70 H110 V71 H109 Z M127 56 H128 V57 H127 Z M265 24 H266 V25 H265 Z M283 23 H284 V24 H283 Z M359 57 H360 V58 H359 Z M374 31 H375 V32 H374 Z M420 46 H421 V47 H420 Z" fill="#014099" fill-opacity="0.454902" fill-rule="evenodd"/>
  <path d="M37 29 H38 V30 H37 Z M318 29 H319 V30 H318 Z M331 23 H332 V24 H331 Z M390 44 H391 V45 H390 Z M428 26 H429 V27 H428 Z M447 24 H448 V25 H447 Z M467 31 H468 V32 H467 Z" fill="#014099" fill-opacity="0.552941" fill-rule="evenodd"/>
  <path d="M94 36 H95 V37 H94 Z M94 54 H95 V55 H94 Z M98 45 H99 V46 H98 Z M146 53 H147 V54 H146 Z M158 52 H159 V53 H158 Z M268 44 H269 V45 H268 Z M478 23 H479 V24 H478 Z" fill="#014099" fill-opacity="0.184314" fill-rule="evenodd"/>
  <path d="M220 26 H221 V27 H220 Z M274 29 H275 V30 H274 Z M281 49 H282 V50 H281 Z M433 60 H434 V61 H433 Z M456 50 H457 V51 H456 Z M467 25 H468 V26 H467 Z M467 55 H468 V56 H467 Z" fill="#014099" fill-opacity="0.705882" fill-rule="evenodd"/>
  <path d="M6 60 H7 V61 H6 Z M163 60 H164 V61 H163 Z M212 57 H213 V58 H212 Z M266 30 H267 V31 H266 Z M288 36 H289 V37 H288 Z M319 28 H320 V29 H319 Z M391 49 H392 V50 H391 Z" fill="#014099" fill-opacity="0.545098" fill-rule="evenodd"/>
  <path d="M11 54 H12 V55 H11 Z M74 7 H75 V8 H74 Z M231 16 H232 V17 H231 Z M274 57 H275 V58 H274 Z M280 40 H281 V41 H280 Z M391 47 H392 V48 H391 Z" fill="#014099" fill-opacity="0.478431" fill-rule="evenodd"/>
  <path d="M74 8 H75 V9 H74 Z M241 54 H242 V55 H241 Z M286 36 H287 V37 H286 Z M395 58 H396 V59 H395 Z M457 35 H458 V36 H457 Z M486 60 H487 V61 H486 Z" fill="#014099" fill-opacity="0.517647" fill-rule="evenodd"/>
  <path d="M24 10 H25 V11 H24 Z M140 9 H141 V10 H140 Z M214 59 H215 V60 H214 Z M323 23 H324 V24 H323 Z M453 55 H454 V56 H453 Z M457 48 H458 V49 H457 Z" fill="#014099" fill-opacity="0.47451" fill-rule="evenodd"/>
  <path d="M25 10 H26 V11 H25 Z M261 34 H262 V35 H261 Z M286 61 H287 V62 H286 Z M329 30 H330 V31 H329 Z M353 23 H354 V24 H353 Z M503 57 H504 V58 H503 Z" fill="#014099" fill-opacity="0.419608" fill-rule="evenodd"/>
  <path d="M24 31 H25 V32 H24 Z M56 14 H57 V15 H56 Z M146 12 H147 V13 H146 Z M213 10 H214 V11 H213 Z M432 46 H433 V47 H432 Z M482 25 H483 V26 H482 Z" fill="#014099" fill-opacity="0.439216" fill-rule="evenodd"/>
  <path d="M206 11 H207 V12 H206 Z M285 23 H286 V24 H285 Z M289 23 H290 V24 H289 Z M346 25 H347 V26 H346 Z M426 28 H427 V29 H426 Z M491 23 H492 V24 H491 Z" fill="#014099" fill-opacity="0.819608" fill-rule="evenodd"/>
  <path d="M11 12 H12 V13 H11 Z M257 60 H258 V61 H257 Z M279 40 H280 V41 H279 Z M294 58 H295 V59 H294 Z M463 60 H464 V61 H463 Z M498 28 H499 V29 H498 Z" fill="#014099" fill-opacity="0.564706" fill-rule="evenodd"/>
  <path d="M119 69 H120 V70 H119 Z M195 15 H196 V16 H195 Z M238 25 H239 V26 H238 Z M374 23 H375 V24 H374 Z M403 24 H404 V25 H403 Z M421 50 H422 V51 H421 Z" fill="#014099" fill-opacity="0.313725" fill-rule="evenodd"/>
  <path d="M298 50 H299 V51 H298 Z M340 60 H341 V61 H340 Z M377 26 H378 V27 H377 Z M378 61 H379 V62 H378 Z M407 17 H408 V18 H407 Z M448 59 H449 V60 H448 Z" fill="#014099" fill-opacity="0.356863" fill-rule="evenodd"/>
  <path d="M63 57 H64 V58 H63 Z M98 43 H99 V44 H98 Z M121 67 H122 V68 H121 Z M284 36 H285 V37 H284 Z M299 30 H300 V31 H299 Z M444 23 H445 V24 H444 Z" fill="#014099" fill-opacity="0.482353" fill-rule="evenodd"/>
  <path d="M30 57 H31 V58 H30 Z M128 47 H129 V48 H128 Z M146 54 H147 V55 H146 Z M283 40 H284 V41 H283 Z M356 55 H357 V56 H356 Z M368 27 H369 V28 H368 Z" fill="#014099" fill-opacity="0.337255" fill-rule="evenodd"/>
  <path d="M43 6 H44 V7 H43 Z M221 7 H222 V8 H221 Z M298 28 H299 V29 H298 Z M310 56 H311 V57 H310 Z M433 50 H434 V51 H433 Z" fill="#014099" fill-opacity="0.282353" fill-rule="evenodd"/>
  <path d="M112 73 H113 V74 H112 Z M134 6 H135 V7 H134 Z M366 38 H367 V39 H366 Z M420 37 H421 V38 H420 Z M485 59 H486 V60 H485 Z" fill="#014099" fill-opacity="0.219608" fill-rule="evenodd"/>
  <path d="M34 10 H35 V11 H34 Z M73 9 H74 V10 H73 Z M189 7 H190 V8 H189 Z M324 23 H325 V24 H324 Z M488 31 H489 V32 H488 Z" fill="#014099" fill-opacity="0.662745" fill-rule="evenodd"/>
  <path d="M89 53 H90 V52 H91 V53 H90 V54 H89 Z M112 9 H113 V10 H112 Z M254 32 H255 V33 H254 Z M318 60 H319 V61 H318 Z" fill="#014099" fill-opacity="0.811765" fill-rule="evenodd"/>
  <path d="M23 31 H24 V32 H23 Z M193 10 H194 V11 H193 Z M240 25 H241 V26 H240 Z M383 28 H384 V29 H383 Z M385 39 H386 V40 H385 Z" fill="#014099" fill-opacity="0.513725" fill-rule="evenodd"/>
  <path d="M12 15 H13 V16 H12 Z M67 42 H68 V43 H67 Z M210 38 H211 V39 H210 Z M227 11 H228 V12 H227 Z M504 58 H505 V59 H504 Z" fill="#014099" fill-opacity="0.913725" fill-rule="evenodd"/>
  <path d="M117 53 H118 V54 H117 Z M206 53 H207 V54 H206 Z M355 13 H356 V14 H355 Z M420 41 H421 V42 H420 Z M447 59 H448 V60 H447 Z" fill="#014099" fill-opacity="0.737255" fill-rule="evenodd"/>
  <path d="M128 50 H129 V51 H128 Z M248 23 H249 V24 H248 Z M266 25 H267 V26 H266 Z M306 37 H307 V38 H306 Z M352 23 H353 V24 H352 Z" fill="#014099" fill-opacity="0.258824" fill-rule="evenodd"/>
  <path d="M159 56 H160 V57 H159 Z M279 33 H280 V34 H279 Z M366 33 H367 V34 H366 Z M410 23 H411 V24 H410 Z M420 42 H421 V43 H420 Z" fill="#014099" fill-opacity="0.776471" fill-rule="evenodd"/>
  <path d="M160 56 H161 V57 H160 Z M367 59 H368 V60 H367 Z M385 59 H386 V60 H385 Z M431 24 H432 V25 H431 Z M436 61 H437 V62 H436 Z" fill="#014099" fill-opacity="0.309804" fill-rule="evenodd"/>
  <path d="M89 58 H90 V59 H89 Z M313 28 H314 V29 H313 Z M382 60 H383 V61 H382 Z M395 59 H396 V60 H395 Z M432 47 H433 V48 H432 Z" fill="#014099" fill-opacity="0.584314" fill-rule="evenodd"/>
  <path d="M254 57 H255 V58 H254 Z M286 53 H287 V54 H286 Z M368 59 H369 V60 H368 Z M457 36 H458 V37 H457 Z M479 30 H480 V31 H479 Z" fill="#014099" fill-opacity="0.741176" fill-rule="evenodd"/>
  <path d="M87 9 H88 V10 H87 Z M117 14 H118 V15 H117 Z M206 34 H207 V35 H206 Z M218 31 H219 V32 H218 Z" fill="#014099" fill-opacity="0.682353" fill-rule="evenodd"/>
  <path d="M160 10 H161 V11 H160 Z M241 32 H242 V33 H241 Z M366 31 H367 V32 H366 Z M398 25 H399 V26 H398 Z" fill="#014099" fill-opacity="0.45098" fill-rule="evenodd"/>
  <path d="M240 29 H241 V30 H240 Z M316 33 H317 V34 H316 Z M324 53 H325 V54 H324 Z M344 13 H345 V14 H344 Z" fill="#014099" fill-opacity="0.607843" fill-rule="evenodd"/>
  <path d="M56 15 H57 V16 H56 Z M99 17 H100 V18 H99 Z M220 23 H221 V24 H220 Z M389 31 H390 V32 H389 Z" fill="#014099" fill-opacity="0.407843" fill-rule="evenodd"/>
  <path d="M44 17 H45 V18 H44 Z M289 28 H290 V29 H289 Z M424 30 H425 V31 H424 Z M479 57 H480 V58 H479 Z" fill="#014099" fill-opacity="0.756863" fill-rule="evenodd"/>
  <path d="M264 23 H265 V24 H264 Z M269 37 H270 V38 H269 Z M291 53 H292 V54 H291 Z M379 26 H380 V27 H379 Z" fill="#014099" fill-opacity="0.262745" fill-rule="evenodd"/>
  <path d="M146 55 H147 V56 H146 Z M308 34 H309 V35 H308 Z M343 28 H344 V29 H343 Z M463 26 H464 V27 H463 Z" fill="#014099" fill-opacity="0.807843" fill-rule="evenodd"/>
  <path d="M29 57 H30 V58 H29 Z M324 27 H325 V28 H324 Z M373 56 H374 V57 H373 Z M444 30 H445 V31 H444 Z" fill="#014099" fill-opacity="0.588235" fill-rule="evenodd"/>
  <path d="M30 31 H31 V32 H30 Z M217 32 H218 V33 H217 Z M296 39 H297 V40 H296 Z M489 54 H490 V55 H489 Z" fill="#014099" fill-opacity="0.462745" fill-rule="evenodd"/>
  <path d="M75 61 H76 V62 H75 Z M258 32 H259 V33 H258 Z M270 51 H271 V52 H270 Z M371 54 H372 V55 H371 Z" fill="#014099" fill-opacity="0.619608" fill-rule="evenodd"/>
  <path d="M42 19 H43 V20 H42 Z M229 31 H230 V32 H229 Z M489 33 H490 V34 H489 Z" fill="#014099" fill-opacity="0.717647" fill-rule="evenodd"/>
  <path d="M41 41 H42 V42 H41 Z M76 55 H77 V56 H76 Z M492 23 H493 V24 H492 Z" fill="#014099" fill-opacity="0.611765" fill-rule="evenodd"/>
  <path d="M239 57 H240 V58 H239 Z M446 36 H447 V37 H446 Z M481 58 H482 V59 H481 Z" fill="#014099" fill-opacity="0.772549" fill-rule="evenodd"/>
  <path d="M225 35 H226 V36 H225 Z" fill="#014099" fill-opacity="0.733333" fill-rule="evenodd"/>
  <path d="M502 57 H503 V58 H502 Z" fill="#014099" fill-opacity="0.666667" fill-rule="evenodd"/>
</svg>
