<svg xmlns="http://www.w3.org/2000/svg" width="500" height="500" viewBox="0 0 500 500" role="img" aria-labelledby="logo-title logo-desc">
  <title id="logo-title">Perfect Construction logo</title>
  <desc id="logo-desc">Blue monogram with a green construction chevron</desc>
  <path d="M 266.00,470.11 L 256.00,470.76 L 253.00,470.08 L 239.00,469.34 L 218.00,466.21 L 200.00,461.43 L 183.00,455.24 L 168.00,448.29 L 155.00,441.21 L 144.00,434.07 L 135.58,428.00 L 123.00,417.42 L 112.00,406.55 L 103.00,396.48 L 92.99,383.00 L 86.00,371.79 L 75.92,352.00 L 74.46,347.00 L 72.90,344.00 L 73.00,342.78 L 74.38,346.00 L 82.00,358.93 L 88.89,368.00 L 96.06,376.00 L 102.27,382.00 L 112.00,390.16 L 120.03,396.00 L 130.00,402.21 L 143.00,408.65 L 144.00,408.65 L 144.48,408.00 L 143.98,384.00 L 144.62,378.00 L 165.00,363.84 L 168.00,362.53 L 170.00,362.76 L 171.26,364.00 L 171.42,365.00 L 172.61,392.00 L 172.62,404.00 L 171.34,407.00 L 162.52,414.00 L 161.60,415.00 L 161.46,416.00 L 164.00,417.37 L 178.00,421.44 L 196.00,425.22 L 215.00,427.31 L 224.00,427.75 L 224.98,427.00 L 225.00,214.99 L 224.00,214.08 L 220.00,213.99 L 62.00,213.97 L 61.00,213.84 L 60.09,213.00 L 59.94,212.00 L 60.37,198.00 L 61.62,188.00 L 66.81,167.00 L 72.74,151.00 L 81.79,133.00 L 92.74,116.00 L 103.10,103.00 L 117.00,88.77 L 130.00,77.85 L 141.00,69.91 L 156.00,60.83 L 175.00,51.66 L 197.00,43.90 L 209.00,40.72 L 231.00,36.82 L 246.00,35.65 L 270.00,35.62 L 285.00,36.75 L 307.00,40.70 L 319.39,44.00 L 336.00,49.73 L 348.00,54.73 L 361.00,61.48 L 376.00,70.69 L 383.00,75.69 L 399.00,88.88 L 407.00,96.74 L 413.00,103.25 L 423.19,116.00 L 434.32,133.00 L 438.32,141.00 L 438.00,141.52 L 431.35,132.00 L 424.00,123.13 L 414.00,113.58 L 399.77,103.00 L 382.00,92.81 L 372.00,88.50 L 359.00,83.75 L 340.00,78.67 L 322.00,75.72 L 316.00,75.18 L 303.00,74.47 L 289.00,74.48 L 273.00,75.66 L 260.00,77.61 L 242.00,81.74 L 222.00,88.56 L 205.00,96.72 L 190.00,106.14 L 180.00,113.77 L 176.50,117.00 L 168.66,125.00 L 160.60,135.00 L 152.84,148.00 L 147.84,160.00 L 147.63,161.00 L 149.00,162.09 L 396.00,161.94 L 398.00,162.03 L 399.26,163.00 L 399.33,212.00 L 399.00,213.66 L 398.35,214.00 L 282.00,213.93 L 280.00,214.07 L 279.12,215.00 L 279.19,432.00 L 280.00,432.61 L 284.00,432.86 L 300.00,433.00 L 310.00,432.42 L 317.00,431.27 L 328.00,428.35 L 337.00,425.26 L 355.00,417.03 L 366.00,410.35 L 376.00,403.21 L 383.27,396.00 L 389.36,387.00 L 391.25,383.00 L 393.27,378.00 L 395.31,368.00 L 395.47,359.00 L 394.54,353.00 L 393.22,348.00 L 390.33,342.00 L 387.00,337.65 L 381.00,333.82 L 371.00,328.76 L 366.00,327.56 L 360.00,326.88 L 341.00,327.16 L 324.00,328.92 L 307.00,331.75 L 301.00,333.24 L 294.00,334.02 L 293.36,331.00 L 293.17,284.00 L 293.29,282.00 L 294.00,281.32 L 314.00,278.91 L 334.00,277.75 L 359.00,278.38 L 371.00,279.57 L 379.00,280.97 L 389.00,283.53 L 399.00,286.82 L 408.00,290.78 L 417.00,296.28 L 423.90,302.00 L 429.00,307.61 L 431.35,311.00 L 435.26,318.00 L 438.17,326.00 L 438.79,329.00 L 440.10,340.00 L 440.06,347.00 L 439.25,354.00 L 437.52,363.00 L 432.11,378.00 L 427.39,387.00 L 420.12,398.00 L 413.42,406.00 L 406.69,413.00 L 402.00,417.36 L 389.00,427.43 L 379.00,434.06 L 368.00,440.52 L 352.00,448.25 L 322.00,458.33 L 291.94,466.00 L 274.00,469.27 L 266.00,470.11 Z M 410.00,197.27 L 408.00,197.31 L 407.24,196.00 L 407.20,153.00 L 406.00,151.77 L 280.00,151.70 L 278.52,151.00 L 278.44,146.00 L 280.00,145.26 L 410.00,145.34 L 410.69,146.00 L 410.75,147.00 L 410.77,190.00 L 410.71,196.00 L 410.00,197.27 Z M 443.00,380.07 L 446.23,370.00 L 448.63,358.00 L 449.15,344.00 L 447.26,329.00 L 444.25,316.00 L 441.13,307.00 L 438.36,301.00 L 432.02,291.00 L 424.00,283.05 L 415.60,276.00 L 410.00,272.52 L 402.00,270.64 L 307.00,268.77 L 306.07,267.00 L 306.51,257.00 L 310.00,256.53 L 401.00,258.67 L 407.00,260.83 L 417.00,265.82 L 428.00,273.62 L 435.46,281.00 L 440.13,287.00 L 444.01,293.00 L 449.11,305.00 L 452.37,318.00 L 453.30,326.00 L 453.51,338.00 L 452.43,354.00 L 451.09,361.00 L 448.52,370.00 L 445.47,378.00 L 443.00,380.07 Z M 183.00,334.46 L 182.00,334.61 L 180.36,334.00 L 179.32,332.00 L 179.17,326.00 L 178.64,324.00 L 178.35,306.00 L 178.40,295.00 L 178.83,292.00 L 181.84,289.00 L 201.00,273.33 L 204.00,272.97 L 205.31,274.00 L 206.31,280.00 L 206.76,306.00 L 206.32,313.00 L 191.00,327.67 L 185.00,333.19 L 183.00,334.46 Z M 80.00,324.37 L 78.00,324.14 L 77.00,323.33 L 70.00,316.51 L 68.45,314.00 L 68.03,309.00 L 68.24,293.00 L 69.00,289.26 L 71.00,287.95 L 72.00,287.87 L 74.00,288.73 L 83.10,297.00 L 83.35,305.00 L 82.50,321.00 L 81.69,323.00 L 80.00,324.37 Z M 146.00,365.01 L 143.90,364.00 L 142.94,361.00 L 141.72,332.00 L 141.82,322.00 L 142.45,319.00 L 144.02,317.00 L 163.24,304.00 L 167.00,302.81 L 169.00,303.95 L 169.80,306.00 L 170.57,333.00 L 170.54,344.00 L 170.14,346.00 L 167.00,349.16 L 152.42,361.00 L 148.00,364.21 L 146.00,365.01 Z M 114.00,365.21 L 112.00,365.17 L 106.63,361.00 L 93.00,348.34 L 91.70,346.00 L 91.37,328.00 L 91.69,313.00 L 92.29,310.00 L 94.00,308.59 L 96.00,308.79 L 98.00,309.87 L 115.20,323.00 L 115.76,325.00 L 115.98,333.00 L 116.02,362.00 L 115.43,364.00 L 114.00,365.21 Z M 128.00,384.59 L 124.00,384.53 L 123.45,383.00 L 123.41,323.00 L 123.63,321.00 L 125.00,320.48 L 128.00,320.52 L 128.60,322.00 L 128.64,381.00 L 128.52,384.00 L 128.00,384.59 Z M 186.00,394.22 L 183.00,394.31 L 181.70,392.00 L 180.55,366.00 L 180.77,353.00 L 183.00,350.04 L 203.00,333.72 L 205.00,332.86 L 206.00,332.98 L 207.38,334.00 L 208.33,336.00 L 209.18,360.00 L 209.07,372.00 L 207.97,374.00 L 186.00,394.22 Z" fill="#2e3094" fill-rule="evenodd"/>
  <path d="M 127.00,313.23 L 120.63,307.00 L 105.00,289.36 L 79.44,262.00 L 78.71,261.00 L 79.00,260.42 L 80.00,260.47 L 100.00,269.83 L 119.00,279.19 L 126.00,282.35 L 128.00,282.56 L 211.03,230.00 L 215.00,227.73 L 215.50,228.00 L 215.00,229.02 L 192.30,251.00 L 165.57,276.00 L 131.01,310.00 L 127.00,313.23 Z" fill="#03a650" fill-rule="evenodd"/>
</svg>